<?xml version="1.0" standalone="no"?>
<!DOCTYPE svg PUBLIC "-//W3C//DTD SVG 20010904//EN"
 "http://www.w3.org/TR/2001/REC-SVG-20010904/DTD/svg10.dtd">
<svg version="1.0" xmlns="http://www.w3.org/2000/svg"
 width="200.000000pt" height="200.000000pt" viewBox="0 0 200.000000 200.000000"
 preserveAspectRatio="xMidYMid meet">
<metadata>
Created by potrace 1.11, written by Peter Selinger 2001-2013
</metadata>
<g transform="translate(0.000000,200.000000) scale(0.100000,-0.100000)"
fill="#000000" stroke="none">
<path d="M845 1948 c-212 -39 -397 -138 -541 -291 -128 -136 -213 -302 -248
-482 -16 -88 -15 -308 2 -363 6 -18 11 -36 12 -40 8 -64 67 -204 124 -291 139
-215 349 -359 616 -422 92 -22 320 -17 417 8 347 92 604 343 699 685 35 126
41 318 13 443 -84 384 -381 675 -765 748 -80 16 -256 18 -329 5z"/>
</g>
</svg>
