<?xml version="1.0" encoding="UTF-8" standalone="no"?>
<svg
   xmlns:osb="http://www.openswatchbook.org/uri/2009/osb"
   xmlns:dc="http://purl.org/dc/elements/1.1/"
   xmlns:cc="http://creativecommons.org/ns#"
   xmlns:rdf="http://www.w3.org/1999/02/22-rdf-syntax-ns#"
   xmlns:svg="http://www.w3.org/2000/svg"
   xmlns="http://www.w3.org/2000/svg"
   xmlns:xlink="http://www.w3.org/1999/xlink"
   xmlns:sodipodi="http://sodipodi.sourceforge.net/DTD/sodipodi-0.dtd"
   xmlns:inkscape="http://www.inkscape.org/namespaces/inkscape"
   viewBox="-200 -200 400 400"
   version="1.1"
   id="svg4"
   sodipodi:docname="logo-svg.svg"
   inkscape:version="0.92.3 (2405546, 2018-03-11)">
  <metadata
     id="metadata10">
    <rdf:RDF>
      <cc:Work
         rdf:about="">
        <dc:format>image/svg+xml</dc:format>
        <dc:type
           rdf:resource="http://purl.org/dc/dcmitype/StillImage" />
      </cc:Work>
    </rdf:RDF>
  </metadata>
  <defs
     id="defs45">
    <pattern
       inkscape:collect="always"
       xlink:href="#e"
       id="pattern1585"
       patternTransform="matrix(0.72297773,0,0,0.43843415,688.81394,153.46212)" />
    <pattern
       inkscape:collect="always"
       xlink:href="#e"
       id="pattern1581"
       patternTransform="matrix(0.17776097,0,0,0.67493267,165.06083,179.70206)" />
    <pattern
       xlink:href="#a"
       id="d"
       patternTransform="translate(751 300.86)" />
    <linearGradient
       id="b"
       osb:paint="solid">
      <stop
         offset="0"
         id="stop4" />
    </linearGradient>
    <linearGradient
       xlink:href="#b"
       id="f"
       x1="851.042"
       y1="693.936"
       x2="877.603"
       y2="693.936"
       gradientUnits="userSpaceOnUse" />
    <pattern
       patternUnits="userSpaceOnUse"
       width="283.08"
       height="214.234"
       patternTransform="translate(224 111.86)"
       id="c">
      <path
         d="M260 121c2.341.585 4.062.708 6 2 .392.261.608.739 1 1 .62.413 1.38.587 2 1 .784.523 1.216 1.477 2 2 1.657 1.105 2.271 1 4 1 .333 0 .684-.105 1 0 .707.236 1.293.764 2 1 .316.105.764-.236 1 0s-.236.764 0 1c3.903 3.903.537-.231 3 1 .422.21.667.667 1 1 .333.333.79.578 1 1 .69 1.38-1.211.894 1 2 .298.15.702-.15 1 0 .422.21.578.79 1 1 .298.15.764-.236 1 0s-.236.764 0 1 .702-.15 1 0c.422.21.578.79 1 1 .596.298 1.529-.471 2 0 .236.236-.236.764 0 1s.764-.236 1 0-.236.764 0 1 .702-.15 1 0c.422.21.578.79 1 1 .298.15.702-.15 1 0 .422.21.578.79 1 1 .298.15.764-.236 1 0s-.236.764 0 1 .702-.15 1 0c1.2.6 1.8 2.4 3 3 .298.15.764-.236 1 0s-.236.764 0 1c.471.471 1.404-.298 2 0 .422.21.667.667 1 1 .333.333.79.578 1 1 .15.298-.15.702 0 1 .21.422.667.667 1 1 .333.333.578.79 1 1 .298.15.702-.15 1 0 .422.21.667.667 1 1 .786.786 4.363 4.682 5 5 .298.15.702-.15 1 0 .843.422 1.216 1.477 2 2a8.46 8.46 0 0 0 2 1c.316.105.764-.236 1 0s-.236.764 0 1c.527.527 1.473.473 2 1 2.069 2.069-3.162-.08 1 2 .298.15.684-.105 1 0 .707.236 1.293.764 2 1 .316.105.702-.15 1 0 .463.232 3.412 3.412 4 4 .333.333.578.79 1 1 .298.15.702-.15 1 0 .422.21.578.79 1 1 .298.15.702-.15 1 0 .422.21.667.667 1 1 .781.781 2.137 2.425 3 3 .62.413 1.38.587 2 1 .392.261.578.79 1 1 .298.15.764-.236 1 0 .527.527.473 1.473 1 2 .527.527 1.38.587 2 1 .392.261.553.85 1 1 .632.21 1.368-.21 2 0 .447.15.667.667 1 1 .333.333.79.578 1 1 .15.298-.298.85 0 1 .596.298 1.368-.21 2 0 2.018.673 0 2 2 3 .298.15.702-.15 1 0 .422.21.578.79 1 1 .596.298 1.404-.298 2 0 4.162 2.08-1.069-.069 1 2 .236.236.764-.236 1 0s-.236.764 0 1c.5.5 2.5-.5 3 0 .236.236-.236.764 0 1s.764-.236 1 0 0 .667 0 1c0 .45.152 2.696 0 3-.21.422-.79.578-1 1-.15.298.236.764 0 1s-.764-.236-1 0 .236.764 0 1c-.471.471-1.529-.471-2 0-.236.236.236.764 0 1-.471.471-1.404-.298-2 0-.422.21-.578.79-1 1-.298.15-.764-.236-1 0s.236.764 0 1-.702-.15-1 0c-.422.21-.578.79-1 1-.596.298-1.404-.298-2 0-.422.21-.578.79-1 1-.596.298-1.404-.298-2 0-.422.21-.578.79-1 1-.298.15-.764-.236-1 0s.236.764 0 1-.684-.105-1 0c-.707.236-1.293.764-2 1-.632.21-1.404-.298-2 0-.422.21-.578.79-1 1-.298.15-.702-.15-1 0-.422.21-.578.79-1 1-.298.15-.702-.15-1 0-.422.21-.553.85-1 1-.005.002-2.999 0-3 0-.236.236.298.85 0 1-.629.314-3.371-.314-4 0-.422.21-.553.85-1 1-.005.002-2.999 0-3 0-.236.236.236.764 0 1-.527.527-1.38.587-2 1-1.83 1.22-.1 1.275-3 2-.647.162-1.368-.21-2 0-.447.15-.608.739-1 1-.62.413-1.333.667-2 1-.667.333-1.277.82-2 1-3.464.866-.6-1.266-4 1-.392.261-.608.739-1 1-.62.413-1.333.667-2 1-.667.333-1.293.764-2 1-.316.105-.702-.15-1 0-.843.422-1.216 1.477-2 2-.62.413-1.38.587-2 1-.392.261-.553.85-1 1-.632.21-1.333 0-2 0-.333 0-.702-.15-1 0-.422.21-.578.79-1 1-.298.15-.702-.15-1 0-.422.21-.578.79-1 1-.298.15-.702-.15-1 0-.422.21-.578.79-1 1-.298.15-.702-.15-1 0-.843.422-1.157 1.578-2 2-.298.15-.764-.236-1 0-.471.471.298 1.404 0 2-.422.843-1.578 1.157-2 2-.298.596.298 1.404 0 2-.21.422-.79.578-1 1-.152.304 0 2.55 0 3v9c0 .333-.236.764 0 1s.764-.236 1 0-.15.702 0 1c.21.422.79.578 1 1 .4.8-.4 2.2 0 3 .422.843 1.578 1.157 2 2 .15.298-.15.702 0 1 .21.422.79.578 1 1 .15.298-.15.702 0 1 .21.422.79.578 1 1 .15.298-.236.764 0 1s.764-.236 1 0c.471.471-.471 1.529 0 2 .236.236.764-.236 1 0 .471.471-.471 1.529 0 2 .236.236.667 0 1 0h7c.333 0 .764.236 1 0s-.236-.764 0-1 .667 0 1 0h14c.333 0 .764-.236 1 0s-.236.764 0 1 .764-.236 1 0-.236.764 0 1 .764-.236 1 0-.236.764 0 1c2.069 2.069-.08-3.162 2 1 .298.596-.298 1.404 0 2 .21.422.79.578 1 1 .15.298-.236.764 0 1s.764-.236 1 0-.15.702 0 1c1.236 2.471 1-.345 1 2v18c0 .243.032 2.968 0 3-.236.236-.764-.236-1 0s.236.764 0 1-.764-.236-1 0c-.68.68 1.022 1.989-1 3-.298.15-.764-.236-1 0s.236.764 0 1-.702-.15-1 0c-.843.422-1.157 1.578-2 2-.298.15-.764-.236-1 0s.236.764 0 1-.764-.236-1 0 .236.764 0 1-.764-.236-1 0 .236.764 0 1-.702-.15-1 0c-.422.21-.578.79-1 1-.298.15-.702-.15-1 0-.843.422-1.157 1.578-2 2-.8.4-2.2-.4-3 0-.422.21-.667.667-1 1-.333.333-.79.578-1 1-.15.298.236.764 0 1-.471.471-1.529-.471-2 0-.236.236.236.764 0 1s-.702-.15-1 0c-.422.21-.578.79-1 1-.298.15-.764-.236-1 0s.236.764 0 1c-.204.204-2.604-.198-3 0-.422.21-.578.79-1 1-.298.15-.702-.15-1 0-.422.21-.578.79-1 1-.298.15-.702-.15-1 0-.422.21-.578.79-1 1-.298.15-.702-.15-1 0-.422.21-.553.85-1 1-.632.21-1.333 0-2 0-.333 0-.702-.15-1 0-.422.21-.578.79-1 1-.621.31-5.36-.32-6 0-.422.21-.578.79-1 1-.263.131-3.477 0-4 0h-8c-.243 0-2.968.032-3 0-.236-.236.15-.702 0-1-.21-.422-.79-.578-1-1-.15-.298.15-.702 0-1-.21-.422-.79-.578-1-1-.112-.224 0-3.762 0-4v-7-25-13-6c0-1.667-.184-3.344 0-5 .152-1.366.806-2.64 1-4 .141-.99-.141-2.01 0-3 .194-1.36.806-2.64 1-4 .141-.99-.196-2.02 0-3 .146-.73.854-1.27 1-2 .327-1.634-.404-3.383 0-5 .18-.723.82-1.277 1-2 .162-.647 0-1.333 0-2 .333-.667.764-1.293 1-2 .105-.316 0-.667 0-1v-2-9-25-18-6c0-1 .316-2.051 0-3-.15-.447-.79-.578-1-1-.15-.298.236-.764 0-1s-.764.236-1 0 .15-.702 0-1c-.21-.422-.79-.578-1-1-.15-.298.15-.702 0-1-.21-.422-.79-.578-1-1-.15-.298.15-.702 0-1-.21-.422-.79-.578-1-1-.198-.396.204-2.796 0-3-.236-.236-.764.236-1 0s0-.667 0-1c0-.696.18-4.638 0-5-.21-.422-.79-.578-1-1-.214-.427 0-4.605 0-5 0-.333.236-.764 0-1s-.764.236-1 0c-.31-.31.31-4.69 0-5-.236-.236-.764.236-1 0s0-.667 0-1v-1-18z"
         fill="#a7f0a3"
         transform="translate(-224 -111.86)"
         id="path8" />
      <path
         d="M430 281c-5.374 0-2.706.323-8-1-1.333-.333-2.679-.622-4-1-1.014-.29-1.96-.827-3-1-.986-.164-2.02.196-3 0-.73-.146-1.277-.82-2-1-.647-.162-1.368.21-2 0-.447-.15-.553-.85-1-1-.632-.21-1.353.162-2 0-2.9-.725-1.17-.78-3-2-1.24-.827-2.667-1.333-4-2-.667-.333-1.308-.723-2-1-.979-.391-2.096-.458-3-1-.808-.485-1.246-1.434-2-2-1.76-1.32-4.24-1.68-6-3-.754-.566-1.246-1.434-2-2-.596-.447-1.38-.587-2-1-.392-.261-.608-.739-1-1-.62-.413-1.404-.553-2-1-1.131-.849-1.823-2.216-3-3-.62-.413-1.38-.587-2-1-.784-.523-1.216-1.477-2-2-.62-.413-1.38-.587-2-1-1.376-.917-1.028-1.543-2-3-.77-1.154-2.23-1.846-3-3-.413-.62-.587-1.38-1-2-.654-.98-1.96-1.653-3-2-.316-.105-.764.236-1 0-.527-.527-.38-1.587-1-2-.555-.37-1.445.37-2 0-.62-.413-.587-1.38-1-2-.261-.392-.79-.578-1-1-.15-.298.185-.723 0-1-.251-.377-4.3-4.533-5-5-.62-.413-1.38-.587-2-1-.392-.261-.578-.79-1-1-.298-.15-.702.15-1 0-.422-.21-.667-.667-1-1-.781-.781-2.137-2.425-3-3-.62-.413-1.38-.587-2-1-.392-.261-.578-.79-1-1-.298-.15-.764.236-1 0s.236-.764 0-1c-.527-.527-1.38-.587-2-1-.392-.261-.578-.79-1-1-.298-.15-.702.15-1 0-.266-.133-2.867-2.734-3-3-.69-1.38 1.211-.894-1-2-.298-.15-.702.15-1 0-1.2-.6-1.8-2.4-3-3-.298-.15-.764.236-1 0s.236-.764 0-1-.764.236-1 0 .236-.764 0-1-.764.236-1 0 .236-.764 0-1-.764.236-1 0 .236-.764 0-1-.764.236-1 0 .236-.764 0-1-.667 0-1 0c0-.333.15-.702 0-1-2.08-4.162.069 1.069-2-1-.236-.236.236-.764 0-1s-.702.15-1 0c-4.162-2.08 1.069.069-1-2-.236-.236-.764.236-1 0s.236-.764 0-1-.764.236-1 0c-.471-.471.471-1.529 0-2-.471-.471-1.529.471-2 0-.236-.236.236-.764 0-1s-.702.15-1 0c-.422-.21-.578-.79-1-1-.298-.15-.667 0-1 0h-7c-.333 0-.764-.236-1 0s.236.764 0 1-.684-.105-1 0c-.707.236-1.293.764-2 1-.551.184-3.786-.214-4 0-.236.236.236.764 0 1s-.702-.15-1 0c-.422.21-.578.79-1 1-.298.15-.702-.15-1 0-.843.422-1.157 1.578-2 2-.298.15-.764-.236-1 0s.236.764 0 1-.702-.15-1 0c-.422.21-.578.79-1 1-.298.15-.702-.15-1 0-.843.422-1.157 1.578-2 2-.298.15-.764-.236-1 0-.471.471.298 1.404 0 2-.21.422-.79.578-1 1-.15.298.236.764 0 1s-.764-.236-1 0 .236.764 0 1-.702-.15-1 0c-4.162 2.08 1.069-.069-1 2-.236.236-.764-.236-1 0s.15.702 0 1c-.21.422-.667.667-1 1-.333.333-.578.79-1 1-.298.15-.764-.236-1 0s.15.702 0 1c-.92 1.841-2.08.159-3 2-.298.596.298 1.404 0 2-1.106 2.211-.62.31-2 1-.422.21-.667.667-1 1-.333.333-.79.578-1 1-.15.298.15.702 0 1-.21.422-.79.578-1 1-.15.298.236.764 0 1s-.702-.15-1 0c-.266.133-2.867 2.734-3 3-.69 1.38 1.211.894-1 2-.298.15-.702-.15-1 0-.886.443-2.09 2.393-3 3-.62.413-1.38.587-2 1-.392.261-.578.79-1 1-.298.15-.702-.15-1 0-.843.422-1.157 1.578-2 2-.596.298-1.404-.298-2 0-.422.21-.578.79-1 1-.396.198-2.796-.204-3 0-.236.236.236.764 0 1s-.702-.15-1 0c-.422.21-.578.79-1 1-.298.15-.702-.15-1 0-.843.422-1.157 1.578-2 2-.298.15-.764-.236-1 0-.141.141-.103 2.795 0 3 2.08 4.162-.069-1.069 2 1 .236.236-.236.764 0 1s.764-.236 1 0-.15.702 0 1c.21.422.667.667 1 1l1 1 4 4c.333.333.79.578 1 1 .152.304 0 2.55 0 3v1c0 .333-.15.702 0 1 .21.422.79.578 1 1 .15.298-.236.764 0 1s.667 0 1 0h1c.367 0 3.96.04 4 0 .236-.236-.236-.764 0-1s.702.15 1 0c2.471-1.236-.345-1 2-1 2.345 0-.471.236 2-1 .298-.15.667 0 1 0h14c1 0 2.051-.316 3 0 .447.15.553.85 1 1 1.265.422 2.706-.323 4 0 .723.18 1.293.764 2 1 .316.105.684-.105 1 0 .707.236 1.277.82 2 1 .647.162 1.368-.21 2 0 .447.15.608.739 1 1a8.46 8.46 0 0 0 2 1c.632.21 1.368-.21 2 0 .707.236 1.293.764 2 1 .316.105.702-.15 1 0 4.162 2.08-1.069-.069 1 2 .527.527 1.38.587 2 1 .784.523 1.106 1.702 2 2 .632.21 1.368-.21 2 0 .447.15.578.79 1 1 2.463 1.231-.903-2.903 3 1 .236.236-.15.702 0 1 1.106 2.211.62.31 2 1 .414.207 2.717 2.576 3 3 .413.62.473 1.473 1 2 .236.236.702-.15 1 0 .422.21.667.667 1 1 .333.333.739.608 1 1 .413.62.587 1.38 1 2 .523.784 1.578 1.157 2 2 .15.298-.15.702 0 1 .232.463 3.412 3.412 4 4l8 8c.588.588 3.537 3.768 4 4 .298.15.764-.236 1 0s-.236.764 0 1c.527.527 1.38.587 2 1 .392.261.578.79 1 1 .596.298 1.404-.298 2 0 .422.21.578.79 1 1 .596.298 1.529-.471 2 0 .236.236-.236.764 0 1s.684-.105 1 0a8.46 8.46 0 0 1 2 1c3.317 3.317-.943-.471 2 1 .422.21.578.79 1 1 .596.298 1.404-.298 2 0 .422.21.578.79 1 1 .298.15.702-.15 1 0 .422.21.578.79 1 1 .59.295 2.312-.23 3 0 .707.236 1.293.764 2 1 .316.105.702-.15 1 0 .422.21.578.79 1 1 .596.298 1.404-.298 2 0 .843.422 1.157 1.578 2 2 .298.15.702-.15 1 0 .422.21.578.79 1 1 .298.15.702-.15 1 0 .422.21.578.79 1 1 .607.304 5.393-.304 6 0 .422.21.578.79 1 1 .607.304 5.393-.304 6 0 .422.21.578.79 1 1 .596.298 1.404-.298 2 0 .422.21.578.79 1 1 .298.15.667 0 1 0h6c.667 0 1.368-.21 2 0 .707.236 1.293.764 2 1 .628.21 3.195 0 4 0h12c.667 0 1.368.21 2 0 2.087-.696 2.913-2.304 5-3 .632-.21 1.368.21 2 0 .707-.236 1.293-.764 2-1 .316-.105.764.236 1 0s-.236-.764 0-1c.296-.296 3.38.31 4 0 .843-.422 1.157-1.578 2-2 2.943-1.471-1.317 2.317 2-1 2.293-2.293-.632.422 3-2 .392-.261.578-.79 1-1 .574-.287 4.149.213 5 0 4.185-1.046-.185-1.954 4-3 6.633 0-1.414.471 3-1 .632-.21 1.333 0 2 0 .333 0 .702.15 1 0 .422-.21.79-.578 1-1 .15-.298-.298-.85 0-1 2-1 1.5.5 3 0 .707-.236 1.293-.764 2-1 .316-.105.702.15 1 0 .422-.21.578-.79 1-1 .298-.15.702.15 1 0 .422-.21.578-.79 1-1 .53-.265 4.32.227 5 0 .447-.15.608-.739 1-1a8.46 8.46 0 0 1 2-1c.632-.21 1.404.298 2 0 .422-.21.553-.85 1-1 .632-.21 1.368.21 2 0 3.121-1.04-.333-.667 1-2 .236-.236.702.15 1 0 .422-.21.578-.79 1-1 .596-.298 1.404.298 2 0 .422-.21.667-.667 1-1 .333-.333.79-.578 1-1 .15-.298-.15-.702 0-1 .21-.422.667-.667 1-1 .333-.333.578-.79 1-1 .298-.15.702.15 1 0 .422-.21.578-.79 1-1 .298-.15.702.15 1 0 .843-.422 1.157-1.578 2-2 1.38-.69.894 1.211 2-1 .298-.596-.298-1.404 0-2 2.08-4.162-.069 1.069 2-1 .236-.236-.15-.702 0-1 .21-.422.79-.578 1-1 .068-.137.068-5.863 0-6-1.106-2.211-.62-.31-2-1-.422-.21-.578-.79-1-1-.298-.15-.702.15-1 0-.422-.21-.578-.79-1-1-.259-.13-5.291 0-6 0h-6c-.333 0-.702-.15-1 0-.422.21-.578.79-1 1-.596.298-1.529-.471-2 0-.236.236.236.764 0 1-2.069 2.069.08-3.162-2 1-.15.298.236.764 0 1s-.667 0-1 0c-.471 0-4.955-.045-5 0-.236.236.236.764 0 1s-.667 0-1 0h-31c-.667 0-1.346.13-2 0-1.348-.27-2.667-.667-4-1z"
         fill="#87df83"
         transform="translate(-224 -111.86)"
         id="path10" />
      <path
         d="M467 141c-5.533 1.312-10.237 4.023-15 7-1.02.637-1.925 1.463-3 2-11.04 5.52 1.126-1.954-10 5-3.173 1.983-4.305 3.152-8 5-.943.471-2.013.63-3 1-3.66 1.372-7.233 2.924-11 4-1.321.378-2.696.565-4 1-2.245.748-2.718 1.859-5 3-1.598.8-5.505 1.573-7 2-1.014.29-2.021.609-3 1-.692.277-1.27.854-2 1-.98.196-2.01-.141-3 0-7.277 1.04-1.386.462-6 2-.316.105-.673-.065-1 0-1.348.27-2.696.565-4 1-.707.236-1.27.854-2 1-7.629 0 .789-.447-5 1-1.294.323-2.706-.323-4 0-.723.18-1.277.82-2 1-.647.162-1.353-.162-2 0-.723.18-1.277.82-2 1-.647.162-1.333 0-2 0-.667.333-1.293.764-2 1-.632.21-1.404-.298-2 0-.843.422-1.085 1.771-2 2-.97.243-2.03-.243-3 0-.457.114-.608.739-1 1-4.368 2.912.33-.443-4 1-.447.15-.578.79-1 1-.298.15-.667 0-1 0-.667 0-1.368-.21-2 0-.894.298-1.106 1.702-2 2-.632.21-1.368-.21-2 0-.894.298-1.157 1.578-2 2-.596.298-1.529-.471-2 0-.236.236.236.764 0 1s-.702-.15-1 0c-.422.21-.578.79-1 1-.298.15-.702-.15-1 0-.843.422-1.157 1.578-2 2-.596.298-1.529-.471-2 0-.236.236 0 .667 0 1v1c0 .523-.131 3.737 0 4 .21.422.79.578 1 1 .15.298-.15.702 0 1 .21.422.79.578 1 1 .15.298-.15.702 0 1 .21.422.79.578 1 1 .304.607-.304 5.393 0 6 .21.422.79.578 1 1 .15.298-.15.702 0 1 .492.984 3.508 3.016 4 4 .15.298-.236.764 0 1s.764-.236 1 0c.5.5-.5 2.5 0 3 .236.236.764-.236 1 0s-.236.764 0 1 .764-.236 1 0-.236.764 0 1 .764-.236 1 0-.236.764 0 1c.032.032 2.757 0 3 0h1c.333 0 .764-.236 1 0s-.236.764 0 1c.204.204 2.604-.198 3 0 .422.21.578.79 1 1 .596.298 1.404-.298 2 0 .422.21.578.79 1 1 .596.298 1.404-.298 2 0 .422.21.578.79 1 1 .298.15.702-.15 1 0 .422.21.578.79 1 1 .298.15.702-.15 1 0 .422.21.578.79 1 1 .298.15.764-.236 1 0s-.298.85 0 1c.596.298 1.368-.21 2 0 .447.15.578.79 1 1 .298.15.702-.15 1 0 .422.21.553.85 1 1 1.063.354 2.937-.354 4 0 .707.236 1.293.764 2 1 .949.316 2.051-.316 3 0 .447.15.667.667 1 1l1 1c2.293 2.293-.632-.422 3 2 .784.523 1.157 1.578 2 2 .298.15.684-.105 1 0 3.625 1.208.712.474 3 2 .62.413 1.38.587 2 1 .392.261.667.667 1 1 .333.333.739.608 1 1 .413.62.473 1.473 1 2 .527.527 1.38.587 2 1 .41.274 2.726 2.59 3 3 3.368 5.052.008.023 1 3 .236.707.667 1.333 1 2 .333.667.587 1.38 1 2 1.22 1.83 1.275.1 2 3 .243.97-.316 2.051 0 3 .236.707.82 1.277 1 2 .162.647-.298 1.404 0 2 .15.298.764-.236 1 0 0 0-.002 2.995 0 3 .15.447.79.578 1 1 .15.298 0 .667 0 1 .333.667.587 1.38 1 2 .261.392.79.578 1 1 .152.304 0 3.31 0 4v7c0 .45-.152 2.696 0 3 .21.422.79.578 1 1 .15.298-.15.702 0 1 .21.422.79.578 1 1 .15.298-.236.764 0 1s.667 0 1 0h2c.333 0 .764-.236 1 0s-.236.764 0 1 .667 0 1 0h6c.333 0 .702.15 1 0 .422-.21.578-.79 1-1 .298-.15.764.236 1 0s-.15-.702 0-1c.21-.422.79-.578 1-1 .15-.298-.236-.764 0-1s.764.236 1 0c.24-.24-.24-3.76 0-4 .236-.236.764.236 1 0s-.15-.702 0-1c.21-.422.79-.578 1-1 .15-.298-.15-.702 0-1 .422-.843 1.578-1.157 2-2 .15-.298-.15-.702 0-1 .21-.422.79-.578 1-1 .198-.396-.204-2.796 0-3 .471-.471 1.529.471 2 0 .236-.236-.236-.764 0-1s.702.15 1 0c.422-.21.667-.667 1-1 .333-.333.79-.578 1-1 .15-.298-.236-.764 0-1s.764.236 1 0-.236-.764 0-1 .702.15 1 0c.422-.21.578-.79 1-1 .596-.298 1.529.471 2 0 .236-.236-.15-.702 0-1 2.08-4.162-.069 1.069 2-1 .236-.236-.15-.702 0-1 .21-.422.667-.667 1-1 .333-.333.578-.79 1-1 .596-.298 1.404.298 2 0 .843-.422 1.157-1.578 2-2 .298-.15.702.15 1 0 .422-.21.578-.79 1-1 .298-.15.764.236 1 0s-.236-.764 0-1 .702.15 1 0c.422-.21.578-.79 1-1 .298-.15.764.236 1 0s-.236-.764 0-1c.471-.471 1.404.298 2 0 .422-.21.578-.79 1-1 .298-.15.702.15 1 0 .984-.492 3.016-3.508 4-4 .298-.15.702.15 1 0 .422-.21.578-.79 1-1 .596-.298 1.404.298 2 0 .843-.422 1.157-1.578 2-2 .298-.15.702.15 1 0 4.162-2.08-1.069.069 1-2 .236-.236.764.236 1 0s-.236-.764 0-1 .764.236 1 0-.236-.764 0-1c2.069-2.069-.08 3.162 2-1 .69-1.38-1.211-.894 1-2 1.38-.69.894 1.211 2-1 .69-1.38-1.211-.894 1-2 .298-.15.764.236 1 0s-.298-.85 0-1c.596-.298 1.404.298 2 0 .298-.15-.15-.702 0-1 .21-.422.667-.667 1-1l1-1c.333-.333.79-.578 1-1 .15-.298-.236-.764 0-1 2.069-2.069-.08 3.162 2-1 .298-.596-.298-1.404 0-2 .21-.422.79-.578 1-1 .15-.298-.236-.764 0-1s.764.236 1 0c.04-.04 0-3.633 0-4v-5c0-1 .316-2.051 0-3-.15-.447-.85-.553-1-1-.21-.632.21-1.368 0-2-.15-.447-.79-.578-1-1-.15-.298.105-.684 0-1-.236-.707-.764-1.293-1-2-.105-.316.15-.702 0-1-.21-.422-.85-.553-1-1-.316-.949 0-2 0-3v-7-8c0-1-.316-2.051 0-3 .15-.447.79-.578 1-1 .15-.298-.105-.684 0-1 .236-.707.764-1.293 1-2 .21-.632-.298-1.404 0-2 .21-.422.79-.578 1-1 .15-.298-.105-.684 0-1 .236-.707.764-1.293 1-2 .5-1.5-1-1 0-3 .15-.298.667 0 1 0 .333-.667.764-1.293 1-2 .105-.316-.105-.684 0-1 .236-.707.82-1.277 1-2 .162-.647-.21-1.368 0-2 .15-.447.739-.608 1-1 .413-.62.587-1.38 1-2 .607-.91 2.557-2.114 3-3 .15-.298-.105-.684 0-1 .294-.883 2.472-5.209 3-6 .261-.392.79-.578 1-1 .15-.298 0-.667 0-1 0-.667-.21-1.368 0-2 1.04-3.121.667.333 2-1 .527-.527.764-1.293 1-2 .21-.632-.298-1.404 0-2 .21-.422.85-.553 1-1 .21-.632-.298-1.404 0-2 .15-.298.764.236 1 0s-.15-.702 0-1c.21-.422.85-.553 1-1 .21-.632 0-1.333 0-2 0-.333-.15-.702 0-1 .21-.422.79-.578 1-1 .15-.298 0-.667 0-1v-1-6c0-.696.18-4.638 0-5-1.106-2.211-.62-.31-2-1-.843-.422-1.157-1.578-2-2-.298-.15-.764.236-1 0s.236-.764 0-1-.702.15-1 0c-.422-.21-.578-.79-1-1-.8-.4-2.2.4-3 0-.843-.422-1.157-1.578-2-2-.298-.15-.702.15-1 0-.422-.21-.578-.79-1-1-.298-.15-.764.236-1 0s.236-.764 0-1-.764.236-1 0 .236-.764 0-1-.764.236-1 0 .236-.764 0-1c-.032-.032-2.757 0-3 0h-12c-.333 0-.764-.236-1 0s.236.764 0 1-.764-.236-1 0 .236.764 0 1-.702-.15-1 0c-.422.21-.578.79-1 1-.298.15-.702-.15-1 0-.422.21-.578.79-1 1-.298.15-.702-.15-1 0-.422.21-.553.85-1 1-.632.21-1.333 0-2 0-.333 0-.702-.15-1 0-.422.21-.578.79-1 1-.596.298-1.404-.298-2 0-.843.422-1.157 1.578-2 2-.298.15-.702-.15-1 0-.422.21-.578.79-1 1-.298.15-.702-.15-1 0-.422.21-.578.79-1 1-.298.15-.764-.236-1 0s.236.764 0 1c-.204.204-2.604-.198-3 0-.422.21-.578.79-1 1-.298.15-.764-.236-1 0s.15.702 0 1c-.21.422-.667.667-1 1-.333.333-.578.79-1 1-.298.15-.764-.236-1 0s.236.764 0 1-.702-.15-1 0c-.422.21-.667.667-1 1-.333.333-.79.578-1 1-.69 1.38 1.211.894-1 2-.298.15-.702-.15-1 0-.422.21-.578.79-1 1-.298.15-.702-.15-1 0-.422.21-.578.79-1 1-.298.15-.764-.236-1 0-2.069 2.069 3.162-.08-1 2-.596.298-1.404-.298-2 0-.422.21-.578.79-1 1-.298.15-.702-.15-1 0-2.022 1.011-.32 2.32-1 3-.236.236-.702-.15-1 0-.422.21-.578.79-1 1-.596.298-1.529-.471-2 0-.236.236.236.764 0 1-2.069 2.069.08-3.162-2 1-.15.298.15.702 0 1-.21.422-.79.578-1 1-.15.298.236.764 0 1s-.702-.15-1 0c-.422.21-.578.79-1 1-.298.15-.764-.236-1 0s.236.764 0 1-.764-.236-1 0 .236.764 0 1-.764-.236-1 0 0 .667 0 1v7c0 .333.236.764 0 1s-.764-.236-1 0-.236.764 0 1 .667 0 1 0h11c.333 0 .702.15 1 0 .422-.21.578-.79 1-1 .298-.15.764.236 1 0s-.236-.764 0-1 .702.15 1 0c.422-.21.578-.79 1-1 .298-.15.702.15 1 0 .422-.21.578-.79 1-1 .298-.15.764.236 1 0s-.298-.85 0-1c.596-.298 1.368.21 2 0 .447-.15.578-.79 1-1 .629-.314 3.371.314 4 0 .422-.21.553-.85 1-1 .632-.21 1.333 0 2 0 .333 0 .702.15 1 0 .422-.21.608-.739 1-1 .504-2.203 2.057-.529 3-1 .422-.21.553-.85 1-1 .632-.21 1.368.21 2 0 .894-.298 1.157-1.578 2-2 .259-.13 5.291 0 6 0h1c.333 0 .764.236 1 0 1.333-1.333-1.667-1 1-1 .243 0 2.968.032 3 0 .236-.236 0-.667 0-1 0-3.217-.021-2.028-3-6z"
         fill="#95d492"
         transform="translate(-224 -111.86)"
         id="path12" />
      <path
         d="M224 128c3.44 2.36 7.428.107 11 1 1.166.291 1.86 1.62 3 2 .949.316 2.014-.164 3 0 1.04.173 1.956.85 3 1 1.54.22 8.304 0 10 0h36c1.667 0 3.366.327 5 0 .73-.146 1.27-.854 2-1 .98-.196 2 0 3 0 .667 0 1.368.21 2 0 1.414-.471 2.586-1.529 4-2 .632-.21 1.346.13 2 0 1.034-.207 1.966-.793 3-1 .654-.13 1.346.13 2 0 6.581-1.316-.551-1 6-1h5c.667 0 1.342.11 2 0 1.356-.226 2.652-.73 4-1 .327-.065.677.08 1 0 1.023-.256 1.977-.744 3-1 .97-.243 2.03.243 3 0 .723-.18 1.277-.82 2-1 .647-.162 1.342.11 2 0 1.356-.226 2.644-.774 4-1 .658-.11 1.353.162 2 0 .723-.18 1.277-.82 2-1 .647-.162 1.353.162 2 0 1.986-.496 4.014-2.504 6-3 .647-.162 1.353.162 2 0 .723-.18 1.277-.82 2-1 .647-.162 1.353.162 2 0 .723-.18 1.277-.82 2-1 .647-.162 1.353.162 2 0 .723-.18 1.277-.82 2-1 .647-.162 1.368.21 2 0 .447-.15.553-.85 1-1 .632-.21 1.353.162 2 0 .723-.18 1.293-.764 2-1 1.5-.5 1 1 3 0 .298-.15-.236-.764 0-1s.702.15 1 0c.422-.21.553-.85 1-1 .949-.316 2 0 3 0h19c.523 0 3.737-.131 4 0 .422.21.578.79 1 1 .596.298 1.529-.471 2 0 .236.236-.236.764 0 1s.764-.236 1 0-.236.764 0 1 .702-.15 1 0c.422.21.578.79 1 1 .8.4 2.2-.4 3 0 2.088 1.044-.088 2.956 2 4 .298.15.764-.236 1 0 2.069 2.069-3.162-.08 1 2 .298.15.764-.236 1 0 2.069 2.069-3.162-.08 1 2 .298.15.764-.236 1 0 .204.204-.198 2.604 0 3 .21.422.79.578 1 1 .15.298-.236.764 0 1s.764-.236 1 0 0 .667 0 1v21c0 .333.236.764 0 1s-.764-.236-1 0 .15.702 0 1c-.21.422-.79.578-1 1-.315.63.315 4.37 0 5-.21.422-.79.578-1 1-.15.298.15.702 0 1-.21.422-.79.578-1 1-.15.298.15.702 0 1-.422.843-1.578 1.157-2 2-.15.298.236.764 0 1s-.764-.236-1 0 .236.764 0 1-.764-.236-1 0c-.471.471.471 1.529 0 2-.236.236-.702-.15-1 0-.422.21-.578.79-1 1-.298.15-.702-.15-1 0-4.162 2.08 1.069-.069-1 2-.236.236-.764-.236-1 0s.236.764 0 1-.764-.236-1 0c-.5.5.5 2.5 0 3-.236.236-.667 0-1 0h-13c-.333 0-.764.236-1 0s.236-.764 0-1c-.032-.032-2.757 0-3 0h-16c-.333 0-.764.236-1 0s.236-.764 0-1-.667 0-1 0h-7c-.333 0-.702.15-1 0-.422-.21-.578-.79-1-1-.607-.304-5.393.304-6 0-.422-.21-.578-.79-1-1-.304-.152-2.55 0-3 0h-7c-.523 0-3.737-.131-4 0-.422.21-.578.79-1 1-.596.298-1.404-.298-2 0-.843.422-1.157 1.578-2 2-.596.298-1.529-.471-2 0-.236.236.236.764 0 1s-.667 0-1 0h-9c-.709 0-5.741.13-6 0-.843-.422-1.157-1.578-2-2-.298-.15-.764.236-1 0s.15-.702 0-1c-.21-.422-.79-.578-1-1-.15-.298.236-.764 0-1s-.764.236-1 0c-.351-.351.345-4.31 0-5-.422-.843-1.578-1.157-2-2-.15-.298.236-.764 0-1s-.764.236-1 0c-.471-.471.298-1.404 0-2-2.08-4.162.069 1.069-2-1-.236-.236.236-.764 0-1s-.702.15-1 0c-.422-.21-.578-.79-1-1-.396-.198-2.796.204-3 0-.236-.236.15-.702 0-1-.21-.422-.79-.578-1-1-.15-.298.236-.764 0-1s-.764.236-1 0 .236-.764 0-1-.702.15-1 0c-.422-.21-.578-.79-1-1-.396-.198-2.796.204-3 0-.236-.236.15-.702 0-1-2.08-4.162.069 1.069-2-1-.236-.236.236-.764 0-1s-.702.15-1 0c-.843-.422-1.157-1.578-2-2-.596-.298-1.529.471-2 0-.236-.236.236-.764 0-1-.204-.204-2.604.198-3 0-.422-.21-.578-.79-1-1-.596-.298-1.404.298-2 0-.422-.21-.578-.79-1-1-.263-.131-3.477 0-4 0h-39c-.45 0-2.696.152-3 0-.422-.21-.578-.79-1-1-.298-.15-.764.236-1 0s.236-.764 0-1-.764.236-1 0 .236-.764 0-1c-.471-.471-1.529.471-2 0-.236-.236.15-.702 0-1-.21-.422-.667-.667-1-1-.333-.333-.578-.79-1-1-.298-.15-.764.236-1 0-2.069-2.069 3.162.08-1-2-.298-.15-.702.15-1 0-.422-.21-.578-.79-1-1-.298-.15-.702.15-1 0-.422-.21-.578-.79-1-1-.596-.298-1.529.471-2 0-.102-.102.068-2.658 0-3-.27-1.348-.667-2.667-1-4z"
         fill="#66d163"
         transform="translate(-224 -111.86)"
         id="path14" />
    </pattern>
    <pattern
       patternUnits="userSpaceOnUse"
       width="283.08"
       height="214.234"
       patternTransform="translate(224 111.86)"
       id="a">
      <path
         d="M260 121c2.341.585 4.062.708 6 2 .392.261.608.739 1 1 .62.413 1.38.587 2 1 .784.523 1.216 1.477 2 2 1.657 1.105 2.271 1 4 1 .333 0 .684-.105 1 0 .707.236 1.293.764 2 1 .316.105.764-.236 1 0s-.236.764 0 1c3.903 3.903.537-.231 3 1 .422.21.667.667 1 1 .333.333.79.578 1 1 .69 1.38-1.211.894 1 2 .298.15.702-.15 1 0 .422.21.578.79 1 1 .298.15.764-.236 1 0s-.236.764 0 1 .702-.15 1 0c.422.21.578.79 1 1 .596.298 1.529-.471 2 0 .236.236-.236.764 0 1s.764-.236 1 0-.236.764 0 1 .702-.15 1 0c.422.21.578.79 1 1 .298.15.702-.15 1 0 .422.21.578.79 1 1 .298.15.764-.236 1 0s-.236.764 0 1 .702-.15 1 0c1.2.6 1.8 2.4 3 3 .298.15.764-.236 1 0s-.236.764 0 1c.471.471 1.404-.298 2 0 .422.21.667.667 1 1 .333.333.79.578 1 1 .15.298-.15.702 0 1 .21.422.667.667 1 1 .333.333.578.79 1 1 .298.15.702-.15 1 0 .422.21.667.667 1 1 .786.786 4.363 4.682 5 5 .298.15.702-.15 1 0 .843.422 1.216 1.477 2 2a8.46 8.46 0 0 0 2 1c.316.105.764-.236 1 0s-.236.764 0 1c.527.527 1.473.473 2 1 2.069 2.069-3.162-.08 1 2 .298.15.684-.105 1 0 .707.236 1.293.764 2 1 .316.105.702-.15 1 0 .463.232 3.412 3.412 4 4 .333.333.578.79 1 1 .298.15.702-.15 1 0 .422.21.578.79 1 1 .298.15.702-.15 1 0 .422.21.667.667 1 1 .781.781 2.137 2.425 3 3 .62.413 1.38.587 2 1 .392.261.578.79 1 1 .298.15.764-.236 1 0 .527.527.473 1.473 1 2 .527.527 1.38.587 2 1 .392.261.553.85 1 1 .632.21 1.368-.21 2 0 .447.15.667.667 1 1 .333.333.79.578 1 1 .15.298-.298.85 0 1 .596.298 1.368-.21 2 0 2.018.673 0 2 2 3 .298.15.702-.15 1 0 .422.21.578.79 1 1 .596.298 1.404-.298 2 0 4.162 2.08-1.069-.069 1 2 .236.236.764-.236 1 0s-.236.764 0 1c.5.5 2.5-.5 3 0 .236.236-.236.764 0 1s.764-.236 1 0 0 .667 0 1c0 .45.152 2.696 0 3-.21.422-.79.578-1 1-.15.298.236.764 0 1s-.764-.236-1 0 .236.764 0 1c-.471.471-1.529-.471-2 0-.236.236.236.764 0 1-.471.471-1.404-.298-2 0-.422.21-.578.79-1 1-.298.15-.764-.236-1 0s.236.764 0 1-.702-.15-1 0c-.422.21-.578.79-1 1-.596.298-1.404-.298-2 0-.422.21-.578.79-1 1-.596.298-1.404-.298-2 0-.422.21-.578.79-1 1-.298.15-.764-.236-1 0s.236.764 0 1-.684-.105-1 0c-.707.236-1.293.764-2 1-.632.21-1.404-.298-2 0-.422.21-.578.79-1 1-.298.15-.702-.15-1 0-.422.21-.578.79-1 1-.298.15-.702-.15-1 0-.422.21-.553.85-1 1-.005.002-2.999 0-3 0-.236.236.298.85 0 1-.629.314-3.371-.314-4 0-.422.21-.553.85-1 1-.005.002-2.999 0-3 0-.236.236.236.764 0 1-.527.527-1.38.587-2 1-1.83 1.22-.1 1.275-3 2-.647.162-1.368-.21-2 0-.447.15-.608.739-1 1-.62.413-1.333.667-2 1-.667.333-1.277.82-2 1-3.464.866-.6-1.266-4 1-.392.261-.608.739-1 1-.62.413-1.333.667-2 1-.667.333-1.293.764-2 1-.316.105-.702-.15-1 0-.843.422-1.216 1.477-2 2-.62.413-1.38.587-2 1-.392.261-.553.85-1 1-.632.21-1.333 0-2 0-.333 0-.702-.15-1 0-.422.21-.578.79-1 1-.298.15-.702-.15-1 0-.422.21-.578.79-1 1-.298.15-.702-.15-1 0-.422.21-.578.79-1 1-.298.15-.702-.15-1 0-.843.422-1.157 1.578-2 2-.298.15-.764-.236-1 0-.471.471.298 1.404 0 2-.422.843-1.578 1.157-2 2-.298.596.298 1.404 0 2-.21.422-.79.578-1 1-.152.304 0 2.55 0 3v9c0 .333-.236.764 0 1s.764-.236 1 0-.15.702 0 1c.21.422.79.578 1 1 .4.8-.4 2.2 0 3 .422.843 1.578 1.157 2 2 .15.298-.15.702 0 1 .21.422.79.578 1 1 .15.298-.15.702 0 1 .21.422.79.578 1 1 .15.298-.236.764 0 1s.764-.236 1 0c.471.471-.471 1.529 0 2 .236.236.764-.236 1 0 .471.471-.471 1.529 0 2 .236.236.667 0 1 0h7c.333 0 .764.236 1 0s-.236-.764 0-1 .667 0 1 0h14c.333 0 .764-.236 1 0s-.236.764 0 1 .764-.236 1 0-.236.764 0 1 .764-.236 1 0-.236.764 0 1c2.069 2.069-.08-3.162 2 1 .298.596-.298 1.404 0 2 .21.422.79.578 1 1 .15.298-.236.764 0 1s.764-.236 1 0-.15.702 0 1c1.236 2.471 1-.345 1 2v18c0 .243.032 2.968 0 3-.236.236-.764-.236-1 0s.236.764 0 1-.764-.236-1 0c-.68.68 1.022 1.989-1 3-.298.15-.764-.236-1 0s.236.764 0 1-.702-.15-1 0c-.843.422-1.157 1.578-2 2-.298.15-.764-.236-1 0s.236.764 0 1-.764-.236-1 0 .236.764 0 1-.764-.236-1 0 .236.764 0 1-.702-.15-1 0c-.422.21-.578.79-1 1-.298.15-.702-.15-1 0-.843.422-1.157 1.578-2 2-.8.4-2.2-.4-3 0-.422.21-.667.667-1 1-.333.333-.79.578-1 1-.15.298.236.764 0 1-.471.471-1.529-.471-2 0-.236.236.236.764 0 1s-.702-.15-1 0c-.422.21-.578.79-1 1-.298.15-.764-.236-1 0s.236.764 0 1c-.204.204-2.604-.198-3 0-.422.21-.578.79-1 1-.298.15-.702-.15-1 0-.422.21-.578.79-1 1-.298.15-.702-.15-1 0-.422.21-.578.79-1 1-.298.15-.702-.15-1 0-.422.21-.553.85-1 1-.632.21-1.333 0-2 0-.333 0-.702-.15-1 0-.422.21-.578.79-1 1-.621.31-5.36-.32-6 0-.422.21-.578.79-1 1-.263.131-3.477 0-4 0h-8c-.243 0-2.968.032-3 0-.236-.236.15-.702 0-1-.21-.422-.79-.578-1-1-.15-.298.15-.702 0-1-.21-.422-.79-.578-1-1-.112-.224 0-3.762 0-4v-7-25-13-6c0-1.667-.184-3.344 0-5 .152-1.366.806-2.64 1-4 .141-.99-.141-2.01 0-3 .194-1.36.806-2.64 1-4 .141-.99-.196-2.02 0-3 .146-.73.854-1.27 1-2 .327-1.634-.404-3.383 0-5 .18-.723.82-1.277 1-2 .162-.647 0-1.333 0-2 .333-.667.764-1.293 1-2 .105-.316 0-.667 0-1v-2-9-25-18-6c0-1 .316-2.051 0-3-.15-.447-.79-.578-1-1-.15-.298.236-.764 0-1s-.764.236-1 0 .15-.702 0-1c-.21-.422-.79-.578-1-1-.15-.298.15-.702 0-1-.21-.422-.79-.578-1-1-.15-.298.15-.702 0-1-.21-.422-.79-.578-1-1-.198-.396.204-2.796 0-3-.236-.236-.764.236-1 0s0-.667 0-1c0-.696.18-4.638 0-5-.21-.422-.79-.578-1-1-.214-.427 0-4.605 0-5 0-.333.236-.764 0-1s-.764.236-1 0c-.31-.31.31-4.69 0-5-.236-.236-.764.236-1 0s0-.667 0-1v-1-18z"
         fill="#a7f0a3"
         transform="translate(-224 -111.86)"
         id="path17" />
      <path
         d="M430 281c-5.374 0-2.706.323-8-1-1.333-.333-2.679-.622-4-1-1.014-.29-1.96-.827-3-1-.986-.164-2.02.196-3 0-.73-.146-1.277-.82-2-1-.647-.162-1.368.21-2 0-.447-.15-.553-.85-1-1-.632-.21-1.353.162-2 0-2.9-.725-1.17-.78-3-2-1.24-.827-2.667-1.333-4-2-.667-.333-1.308-.723-2-1-.979-.391-2.096-.458-3-1-.808-.485-1.246-1.434-2-2-1.76-1.32-4.24-1.68-6-3-.754-.566-1.246-1.434-2-2-.596-.447-1.38-.587-2-1-.392-.261-.608-.739-1-1-.62-.413-1.404-.553-2-1-1.131-.849-1.823-2.216-3-3-.62-.413-1.38-.587-2-1-.784-.523-1.216-1.477-2-2-.62-.413-1.38-.587-2-1-1.376-.917-1.028-1.543-2-3-.77-1.154-2.23-1.846-3-3-.413-.62-.587-1.38-1-2-.654-.98-1.96-1.653-3-2-.316-.105-.764.236-1 0-.527-.527-.38-1.587-1-2-.555-.37-1.445.37-2 0-.62-.413-.587-1.38-1-2-.261-.392-.79-.578-1-1-.15-.298.185-.723 0-1-.251-.377-4.3-4.533-5-5-.62-.413-1.38-.587-2-1-.392-.261-.578-.79-1-1-.298-.15-.702.15-1 0-.422-.21-.667-.667-1-1-.781-.781-2.137-2.425-3-3-.62-.413-1.38-.587-2-1-.392-.261-.578-.79-1-1-.298-.15-.764.236-1 0s.236-.764 0-1c-.527-.527-1.38-.587-2-1-.392-.261-.578-.79-1-1-.298-.15-.702.15-1 0-.266-.133-2.867-2.734-3-3-.69-1.38 1.211-.894-1-2-.298-.15-.702.15-1 0-1.2-.6-1.8-2.4-3-3-.298-.15-.764.236-1 0s.236-.764 0-1-.764.236-1 0 .236-.764 0-1-.764.236-1 0 .236-.764 0-1-.764.236-1 0 .236-.764 0-1-.764.236-1 0 .236-.764 0-1-.667 0-1 0c0-.333.15-.702 0-1-2.08-4.162.069 1.069-2-1-.236-.236.236-.764 0-1s-.702.15-1 0c-4.162-2.08 1.069.069-1-2-.236-.236-.764.236-1 0s.236-.764 0-1-.764.236-1 0c-.471-.471.471-1.529 0-2-.471-.471-1.529.471-2 0-.236-.236.236-.764 0-1s-.702.15-1 0c-.422-.21-.578-.79-1-1-.298-.15-.667 0-1 0h-7c-.333 0-.764-.236-1 0s.236.764 0 1-.684-.105-1 0c-.707.236-1.293.764-2 1-.551.184-3.786-.214-4 0-.236.236.236.764 0 1s-.702-.15-1 0c-.422.21-.578.79-1 1-.298.15-.702-.15-1 0-.843.422-1.157 1.578-2 2-.298.15-.764-.236-1 0s.236.764 0 1-.702-.15-1 0c-.422.21-.578.79-1 1-.298.15-.702-.15-1 0-.843.422-1.157 1.578-2 2-.298.15-.764-.236-1 0-.471.471.298 1.404 0 2-.21.422-.79.578-1 1-.15.298.236.764 0 1s-.764-.236-1 0 .236.764 0 1-.702-.15-1 0c-4.162 2.08 1.069-.069-1 2-.236.236-.764-.236-1 0s.15.702 0 1c-.21.422-.667.667-1 1-.333.333-.578.79-1 1-.298.15-.764-.236-1 0s.15.702 0 1c-.92 1.841-2.08.159-3 2-.298.596.298 1.404 0 2-1.106 2.211-.62.31-2 1-.422.21-.667.667-1 1-.333.333-.79.578-1 1-.15.298.15.702 0 1-.21.422-.79.578-1 1-.15.298.236.764 0 1s-.702-.15-1 0c-.266.133-2.867 2.734-3 3-.69 1.38 1.211.894-1 2-.298.15-.702-.15-1 0-.886.443-2.09 2.393-3 3-.62.413-1.38.587-2 1-.392.261-.578.79-1 1-.298.15-.702-.15-1 0-.843.422-1.157 1.578-2 2-.596.298-1.404-.298-2 0-.422.21-.578.79-1 1-.396.198-2.796-.204-3 0-.236.236.236.764 0 1s-.702-.15-1 0c-.422.21-.578.79-1 1-.298.15-.702-.15-1 0-.843.422-1.157 1.578-2 2-.298.15-.764-.236-1 0-.141.141-.103 2.795 0 3 2.08 4.162-.069-1.069 2 1 .236.236-.236.764 0 1s.764-.236 1 0-.15.702 0 1c.21.422.667.667 1 1l1 1 4 4c.333.333.79.578 1 1 .152.304 0 2.55 0 3v1c0 .333-.15.702 0 1 .21.422.79.578 1 1 .15.298-.236.764 0 1s.667 0 1 0h1c.367 0 3.96.04 4 0 .236-.236-.236-.764 0-1s.702.15 1 0c2.471-1.236-.345-1 2-1 2.345 0-.471.236 2-1 .298-.15.667 0 1 0h14c1 0 2.051-.316 3 0 .447.15.553.85 1 1 1.265.422 2.706-.323 4 0 .723.18 1.293.764 2 1 .316.105.684-.105 1 0 .707.236 1.277.82 2 1 .647.162 1.368-.21 2 0 .447.15.608.739 1 1a8.46 8.46 0 0 0 2 1c.632.21 1.368-.21 2 0 .707.236 1.293.764 2 1 .316.105.702-.15 1 0 4.162 2.08-1.069-.069 1 2 .527.527 1.38.587 2 1 .784.523 1.106 1.702 2 2 .632.21 1.368-.21 2 0 .447.15.578.79 1 1 2.463 1.231-.903-2.903 3 1 .236.236-.15.702 0 1 1.106 2.211.62.31 2 1 .414.207 2.717 2.576 3 3 .413.62.473 1.473 1 2 .236.236.702-.15 1 0 .422.21.667.667 1 1 .333.333.739.608 1 1 .413.62.587 1.38 1 2 .523.784 1.578 1.157 2 2 .15.298-.15.702 0 1 .232.463 3.412 3.412 4 4l8 8c.588.588 3.537 3.768 4 4 .298.15.764-.236 1 0s-.236.764 0 1c.527.527 1.38.587 2 1 .392.261.578.79 1 1 .596.298 1.404-.298 2 0 .422.21.578.79 1 1 .596.298 1.529-.471 2 0 .236.236-.236.764 0 1s.684-.105 1 0a8.46 8.46 0 0 1 2 1c3.317 3.317-.943-.471 2 1 .422.21.578.79 1 1 .596.298 1.404-.298 2 0 .422.21.578.79 1 1 .298.15.702-.15 1 0 .422.21.578.79 1 1 .59.295 2.312-.23 3 0 .707.236 1.293.764 2 1 .316.105.702-.15 1 0 .422.21.578.79 1 1 .596.298 1.404-.298 2 0 .843.422 1.157 1.578 2 2 .298.15.702-.15 1 0 .422.21.578.79 1 1 .298.15.702-.15 1 0 .422.21.578.79 1 1 .607.304 5.393-.304 6 0 .422.21.578.79 1 1 .607.304 5.393-.304 6 0 .422.21.578.79 1 1 .596.298 1.404-.298 2 0 .422.21.578.79 1 1 .298.15.667 0 1 0h6c.667 0 1.368-.21 2 0 .707.236 1.293.764 2 1 .628.21 3.195 0 4 0h12c.667 0 1.368.21 2 0 2.087-.696 2.913-2.304 5-3 .632-.21 1.368.21 2 0 .707-.236 1.293-.764 2-1 .316-.105.764.236 1 0s-.236-.764 0-1c.296-.296 3.38.31 4 0 .843-.422 1.157-1.578 2-2 2.943-1.471-1.317 2.317 2-1 2.293-2.293-.632.422 3-2 .392-.261.578-.79 1-1 .574-.287 4.149.213 5 0 4.185-1.046-.185-1.954 4-3 6.633 0-1.414.471 3-1 .632-.21 1.333 0 2 0 .333 0 .702.15 1 0 .422-.21.79-.578 1-1 .15-.298-.298-.85 0-1 2-1 1.5.5 3 0 .707-.236 1.293-.764 2-1 .316-.105.702.15 1 0 .422-.21.578-.79 1-1 .298-.15.702.15 1 0 .422-.21.578-.79 1-1 .53-.265 4.32.227 5 0 .447-.15.608-.739 1-1a8.46 8.46 0 0 1 2-1c.632-.21 1.404.298 2 0 .422-.21.553-.85 1-1 .632-.21 1.368.21 2 0 3.121-1.04-.333-.667 1-2 .236-.236.702.15 1 0 .422-.21.578-.79 1-1 .596-.298 1.404.298 2 0 .422-.21.667-.667 1-1 .333-.333.79-.578 1-1 .15-.298-.15-.702 0-1 .21-.422.667-.667 1-1 .333-.333.578-.79 1-1 .298-.15.702.15 1 0 .422-.21.578-.79 1-1 .298-.15.702.15 1 0 .843-.422 1.157-1.578 2-2 1.38-.69.894 1.211 2-1 .298-.596-.298-1.404 0-2 2.08-4.162-.069 1.069 2-1 .236-.236-.15-.702 0-1 .21-.422.79-.578 1-1 .068-.137.068-5.863 0-6-1.106-2.211-.62-.31-2-1-.422-.21-.578-.79-1-1-.298-.15-.702.15-1 0-.422-.21-.578-.79-1-1-.259-.13-5.291 0-6 0h-6c-.333 0-.702-.15-1 0-.422.21-.578.79-1 1-.596.298-1.529-.471-2 0-.236.236.236.764 0 1-2.069 2.069.08-3.162-2 1-.15.298.236.764 0 1s-.667 0-1 0c-.471 0-4.955-.045-5 0-.236.236.236.764 0 1s-.667 0-1 0h-31c-.667 0-1.346.13-2 0-1.348-.27-2.667-.667-4-1z"
         fill="#87df83"
         transform="translate(-224 -111.86)"
         id="path19" />
      <path
         d="M467 141c-5.533 1.312-10.237 4.023-15 7-1.02.637-1.925 1.463-3 2-11.04 5.52 1.126-1.954-10 5-3.173 1.983-4.305 3.152-8 5-.943.471-2.013.63-3 1-3.66 1.372-7.233 2.924-11 4-1.321.378-2.696.565-4 1-2.245.748-2.718 1.859-5 3-1.598.8-5.505 1.573-7 2-1.014.29-2.021.609-3 1-.692.277-1.27.854-2 1-.98.196-2.01-.141-3 0-7.277 1.04-1.386.462-6 2-.316.105-.673-.065-1 0-1.348.27-2.696.565-4 1-.707.236-1.27.854-2 1-7.629 0 .789-.447-5 1-1.294.323-2.706-.323-4 0-.723.18-1.277.82-2 1-.647.162-1.353-.162-2 0-.723.18-1.277.82-2 1-.647.162-1.333 0-2 0-.667.333-1.293.764-2 1-.632.21-1.404-.298-2 0-.843.422-1.085 1.771-2 2-.97.243-2.03-.243-3 0-.457.114-.608.739-1 1-4.368 2.912.33-.443-4 1-.447.15-.578.79-1 1-.298.15-.667 0-1 0-.667 0-1.368-.21-2 0-.894.298-1.106 1.702-2 2-.632.21-1.368-.21-2 0-.894.298-1.157 1.578-2 2-.596.298-1.529-.471-2 0-.236.236.236.764 0 1s-.702-.15-1 0c-.422.21-.578.79-1 1-.298.15-.702-.15-1 0-.843.422-1.157 1.578-2 2-.596.298-1.529-.471-2 0-.236.236 0 .667 0 1v1c0 .523-.131 3.737 0 4 .21.422.79.578 1 1 .15.298-.15.702 0 1 .21.422.79.578 1 1 .15.298-.15.702 0 1 .21.422.79.578 1 1 .304.607-.304 5.393 0 6 .21.422.79.578 1 1 .15.298-.15.702 0 1 .492.984 3.508 3.016 4 4 .15.298-.236.764 0 1s.764-.236 1 0c.5.5-.5 2.5 0 3 .236.236.764-.236 1 0s-.236.764 0 1 .764-.236 1 0-.236.764 0 1 .764-.236 1 0-.236.764 0 1c.032.032 2.757 0 3 0h1c.333 0 .764-.236 1 0s-.236.764 0 1c.204.204 2.604-.198 3 0 .422.21.578.79 1 1 .596.298 1.404-.298 2 0 .422.21.578.79 1 1 .596.298 1.404-.298 2 0 .422.21.578.79 1 1 .298.15.702-.15 1 0 .422.21.578.79 1 1 .298.15.702-.15 1 0 .422.21.578.79 1 1 .298.15.764-.236 1 0s-.298.85 0 1c.596.298 1.368-.21 2 0 .447.15.578.79 1 1 .298.15.702-.15 1 0 .422.21.553.85 1 1 1.063.354 2.937-.354 4 0 .707.236 1.293.764 2 1 .949.316 2.051-.316 3 0 .447.15.667.667 1 1l1 1c2.293 2.293-.632-.422 3 2 .784.523 1.157 1.578 2 2 .298.15.684-.105 1 0 3.625 1.208.712.474 3 2 .62.413 1.38.587 2 1 .392.261.667.667 1 1 .333.333.739.608 1 1 .413.62.473 1.473 1 2 .527.527 1.38.587 2 1 .41.274 2.726 2.59 3 3 3.368 5.052.008.023 1 3 .236.707.667 1.333 1 2 .333.667.587 1.38 1 2 1.22 1.83 1.275.1 2 3 .243.97-.316 2.051 0 3 .236.707.82 1.277 1 2 .162.647-.298 1.404 0 2 .15.298.764-.236 1 0 0 0-.002 2.995 0 3 .15.447.79.578 1 1 .15.298 0 .667 0 1 .333.667.587 1.38 1 2 .261.392.79.578 1 1 .152.304 0 3.31 0 4v7c0 .45-.152 2.696 0 3 .21.422.79.578 1 1 .15.298-.15.702 0 1 .21.422.79.578 1 1 .15.298-.236.764 0 1s.667 0 1 0h2c.333 0 .764-.236 1 0s-.236.764 0 1 .667 0 1 0h6c.333 0 .702.15 1 0 .422-.21.578-.79 1-1 .298-.15.764.236 1 0s-.15-.702 0-1c.21-.422.79-.578 1-1 .15-.298-.236-.764 0-1s.764.236 1 0c.24-.24-.24-3.76 0-4 .236-.236.764.236 1 0s-.15-.702 0-1c.21-.422.79-.578 1-1 .15-.298-.15-.702 0-1 .422-.843 1.578-1.157 2-2 .15-.298-.15-.702 0-1 .21-.422.79-.578 1-1 .198-.396-.204-2.796 0-3 .471-.471 1.529.471 2 0 .236-.236-.236-.764 0-1s.702.15 1 0c.422-.21.667-.667 1-1 .333-.333.79-.578 1-1 .15-.298-.236-.764 0-1s.764.236 1 0-.236-.764 0-1 .702.15 1 0c.422-.21.578-.79 1-1 .596-.298 1.529.471 2 0 .236-.236-.15-.702 0-1 2.08-4.162-.069 1.069 2-1 .236-.236-.15-.702 0-1 .21-.422.667-.667 1-1 .333-.333.578-.79 1-1 .596-.298 1.404.298 2 0 .843-.422 1.157-1.578 2-2 .298-.15.702.15 1 0 .422-.21.578-.79 1-1 .298-.15.764.236 1 0s-.236-.764 0-1 .702.15 1 0c.422-.21.578-.79 1-1 .298-.15.764.236 1 0s-.236-.764 0-1c.471-.471 1.404.298 2 0 .422-.21.578-.79 1-1 .298-.15.702.15 1 0 .984-.492 3.016-3.508 4-4 .298-.15.702.15 1 0 .422-.21.578-.79 1-1 .596-.298 1.404.298 2 0 .843-.422 1.157-1.578 2-2 .298-.15.702.15 1 0 4.162-2.08-1.069.069 1-2 .236-.236.764.236 1 0s-.236-.764 0-1 .764.236 1 0-.236-.764 0-1c2.069-2.069-.08 3.162 2-1 .69-1.38-1.211-.894 1-2 1.38-.69.894 1.211 2-1 .69-1.38-1.211-.894 1-2 .298-.15.764.236 1 0s-.298-.85 0-1c.596-.298 1.404.298 2 0 .298-.15-.15-.702 0-1 .21-.422.667-.667 1-1l1-1c.333-.333.79-.578 1-1 .15-.298-.236-.764 0-1 2.069-2.069-.08 3.162 2-1 .298-.596-.298-1.404 0-2 .21-.422.79-.578 1-1 .15-.298-.236-.764 0-1s.764.236 1 0c.04-.04 0-3.633 0-4v-5c0-1 .316-2.051 0-3-.15-.447-.85-.553-1-1-.21-.632.21-1.368 0-2-.15-.447-.79-.578-1-1-.15-.298.105-.684 0-1-.236-.707-.764-1.293-1-2-.105-.316.15-.702 0-1-.21-.422-.85-.553-1-1-.316-.949 0-2 0-3v-7-8c0-1-.316-2.051 0-3 .15-.447.79-.578 1-1 .15-.298-.105-.684 0-1 .236-.707.764-1.293 1-2 .21-.632-.298-1.404 0-2 .21-.422.79-.578 1-1 .15-.298-.105-.684 0-1 .236-.707.764-1.293 1-2 .5-1.5-1-1 0-3 .15-.298.667 0 1 0 .333-.667.764-1.293 1-2 .105-.316-.105-.684 0-1 .236-.707.82-1.277 1-2 .162-.647-.21-1.368 0-2 .15-.447.739-.608 1-1 .413-.62.587-1.38 1-2 .607-.91 2.557-2.114 3-3 .15-.298-.105-.684 0-1 .294-.883 2.472-5.209 3-6 .261-.392.79-.578 1-1 .15-.298 0-.667 0-1 0-.667-.21-1.368 0-2 1.04-3.121.667.333 2-1 .527-.527.764-1.293 1-2 .21-.632-.298-1.404 0-2 .21-.422.85-.553 1-1 .21-.632-.298-1.404 0-2 .15-.298.764.236 1 0s-.15-.702 0-1c.21-.422.85-.553 1-1 .21-.632 0-1.333 0-2 0-.333-.15-.702 0-1 .21-.422.79-.578 1-1 .15-.298 0-.667 0-1v-1-6c0-.696.18-4.638 0-5-1.106-2.211-.62-.31-2-1-.843-.422-1.157-1.578-2-2-.298-.15-.764.236-1 0s.236-.764 0-1-.702.15-1 0c-.422-.21-.578-.79-1-1-.8-.4-2.2.4-3 0-.843-.422-1.157-1.578-2-2-.298-.15-.702.15-1 0-.422-.21-.578-.79-1-1-.298-.15-.764.236-1 0s.236-.764 0-1-.764.236-1 0 .236-.764 0-1-.764.236-1 0 .236-.764 0-1c-.032-.032-2.757 0-3 0h-12c-.333 0-.764-.236-1 0s.236.764 0 1-.764-.236-1 0 .236.764 0 1-.702-.15-1 0c-.422.21-.578.79-1 1-.298.15-.702-.15-1 0-.422.21-.578.79-1 1-.298.15-.702-.15-1 0-.422.21-.553.85-1 1-.632.21-1.333 0-2 0-.333 0-.702-.15-1 0-.422.21-.578.79-1 1-.596.298-1.404-.298-2 0-.843.422-1.157 1.578-2 2-.298.15-.702-.15-1 0-.422.21-.578.79-1 1-.298.15-.702-.15-1 0-.422.21-.578.79-1 1-.298.15-.764-.236-1 0s.236.764 0 1c-.204.204-2.604-.198-3 0-.422.21-.578.79-1 1-.298.15-.764-.236-1 0s.15.702 0 1c-.21.422-.667.667-1 1-.333.333-.578.79-1 1-.298.15-.764-.236-1 0s.236.764 0 1-.702-.15-1 0c-.422.21-.667.667-1 1-.333.333-.79.578-1 1-.69 1.38 1.211.894-1 2-.298.15-.702-.15-1 0-.422.21-.578.79-1 1-.298.15-.702-.15-1 0-.422.21-.578.79-1 1-.298.15-.764-.236-1 0-2.069 2.069 3.162-.08-1 2-.596.298-1.404-.298-2 0-.422.21-.578.79-1 1-.298.15-.702-.15-1 0-2.022 1.011-.32 2.32-1 3-.236.236-.702-.15-1 0-.422.21-.578.79-1 1-.596.298-1.529-.471-2 0-.236.236.236.764 0 1-2.069 2.069.08-3.162-2 1-.15.298.15.702 0 1-.21.422-.79.578-1 1-.15.298.236.764 0 1s-.702-.15-1 0c-.422.21-.578.79-1 1-.298.15-.764-.236-1 0s.236.764 0 1-.764-.236-1 0 .236.764 0 1-.764-.236-1 0 0 .667 0 1v7c0 .333.236.764 0 1s-.764-.236-1 0-.236.764 0 1 .667 0 1 0h11c.333 0 .702.15 1 0 .422-.21.578-.79 1-1 .298-.15.764.236 1 0s-.236-.764 0-1 .702.15 1 0c.422-.21.578-.79 1-1 .298-.15.702.15 1 0 .422-.21.578-.79 1-1 .298-.15.764.236 1 0s-.298-.85 0-1c.596-.298 1.368.21 2 0 .447-.15.578-.79 1-1 .629-.314 3.371.314 4 0 .422-.21.553-.85 1-1 .632-.21 1.333 0 2 0 .333 0 .702.15 1 0 .422-.21.608-.739 1-1 .504-2.203 2.057-.529 3-1 .422-.21.553-.85 1-1 .632-.21 1.368.21 2 0 .894-.298 1.157-1.578 2-2 .259-.13 5.291 0 6 0h1c.333 0 .764.236 1 0 1.333-1.333-1.667-1 1-1 .243 0 2.968.032 3 0 .236-.236 0-.667 0-1 0-3.217-.021-2.028-3-6z"
         fill="#95d492"
         transform="translate(-224 -111.86)"
         id="path21" />
      <path
         d="M224 128c3.44 2.36 7.428.107 11 1 1.166.291 1.86 1.62 3 2 .949.316 2.014-.164 3 0 1.04.173 1.956.85 3 1 1.54.22 8.304 0 10 0h36c1.667 0 3.366.327 5 0 .73-.146 1.27-.854 2-1 .98-.196 2 0 3 0 .667 0 1.368.21 2 0 1.414-.471 2.586-1.529 4-2 .632-.21 1.346.13 2 0 1.034-.207 1.966-.793 3-1 .654-.13 1.346.13 2 0 6.581-1.316-.551-1 6-1h5c.667 0 1.342.11 2 0 1.356-.226 2.652-.73 4-1 .327-.065.677.08 1 0 1.023-.256 1.977-.744 3-1 .97-.243 2.03.243 3 0 .723-.18 1.277-.82 2-1 .647-.162 1.342.11 2 0 1.356-.226 2.644-.774 4-1 .658-.11 1.353.162 2 0 .723-.18 1.277-.82 2-1 .647-.162 1.353.162 2 0 1.986-.496 4.014-2.504 6-3 .647-.162 1.353.162 2 0 .723-.18 1.277-.82 2-1 .647-.162 1.353.162 2 0 .723-.18 1.277-.82 2-1 .647-.162 1.353.162 2 0 .723-.18 1.277-.82 2-1 .647-.162 1.368.21 2 0 .447-.15.553-.85 1-1 .632-.21 1.353.162 2 0 .723-.18 1.293-.764 2-1 1.5-.5 1 1 3 0 .298-.15-.236-.764 0-1s.702.15 1 0c.422-.21.553-.85 1-1 .949-.316 2 0 3 0h19c.523 0 3.737-.131 4 0 .422.21.578.79 1 1 .596.298 1.529-.471 2 0 .236.236-.236.764 0 1s.764-.236 1 0-.236.764 0 1 .702-.15 1 0c.422.21.578.79 1 1 .8.4 2.2-.4 3 0 2.088 1.044-.088 2.956 2 4 .298.15.764-.236 1 0 2.069 2.069-3.162-.08 1 2 .298.15.764-.236 1 0 2.069 2.069-3.162-.08 1 2 .298.15.764-.236 1 0 .204.204-.198 2.604 0 3 .21.422.79.578 1 1 .15.298-.236.764 0 1s.764-.236 1 0 0 .667 0 1v21c0 .333.236.764 0 1s-.764-.236-1 0 .15.702 0 1c-.21.422-.79.578-1 1-.315.63.315 4.37 0 5-.21.422-.79.578-1 1-.15.298.15.702 0 1-.21.422-.79.578-1 1-.15.298.15.702 0 1-.422.843-1.578 1.157-2 2-.15.298.236.764 0 1s-.764-.236-1 0 .236.764 0 1-.764-.236-1 0c-.471.471.471 1.529 0 2-.236.236-.702-.15-1 0-.422.21-.578.79-1 1-.298.15-.702-.15-1 0-4.162 2.08 1.069-.069-1 2-.236.236-.764-.236-1 0s.236.764 0 1-.764-.236-1 0c-.5.5.5 2.5 0 3-.236.236-.667 0-1 0h-13c-.333 0-.764.236-1 0s.236-.764 0-1c-.032-.032-2.757 0-3 0h-16c-.333 0-.764.236-1 0s.236-.764 0-1-.667 0-1 0h-7c-.333 0-.702.15-1 0-.422-.21-.578-.79-1-1-.607-.304-5.393.304-6 0-.422-.21-.578-.79-1-1-.304-.152-2.55 0-3 0h-7c-.523 0-3.737-.131-4 0-.422.21-.578.79-1 1-.596.298-1.404-.298-2 0-.843.422-1.157 1.578-2 2-.596.298-1.529-.471-2 0-.236.236.236.764 0 1s-.667 0-1 0h-9c-.709 0-5.741.13-6 0-.843-.422-1.157-1.578-2-2-.298-.15-.764.236-1 0s.15-.702 0-1c-.21-.422-.79-.578-1-1-.15-.298.236-.764 0-1s-.764.236-1 0c-.351-.351.345-4.31 0-5-.422-.843-1.578-1.157-2-2-.15-.298.236-.764 0-1s-.764.236-1 0c-.471-.471.298-1.404 0-2-2.08-4.162.069 1.069-2-1-.236-.236.236-.764 0-1s-.702.15-1 0c-.422-.21-.578-.79-1-1-.396-.198-2.796.204-3 0-.236-.236.15-.702 0-1-.21-.422-.79-.578-1-1-.15-.298.236-.764 0-1s-.764.236-1 0 .236-.764 0-1-.702.15-1 0c-.422-.21-.578-.79-1-1-.396-.198-2.796.204-3 0-.236-.236.15-.702 0-1-2.08-4.162.069 1.069-2-1-.236-.236.236-.764 0-1s-.702.15-1 0c-.843-.422-1.157-1.578-2-2-.596-.298-1.529.471-2 0-.236-.236.236-.764 0-1-.204-.204-2.604.198-3 0-.422-.21-.578-.79-1-1-.596-.298-1.404.298-2 0-.422-.21-.578-.79-1-1-.263-.131-3.477 0-4 0h-39c-.45 0-2.696.152-3 0-.422-.21-.578-.79-1-1-.298-.15-.764.236-1 0s.236-.764 0-1-.764.236-1 0 .236-.764 0-1c-.471-.471-1.529.471-2 0-.236-.236.15-.702 0-1-.21-.422-.667-.667-1-1-.333-.333-.578-.79-1-1-.298-.15-.764.236-1 0-2.069-2.069 3.162.08-1-2-.298-.15-.702.15-1 0-.422-.21-.578-.79-1-1-.298-.15-.702.15-1 0-.422-.21-.578-.79-1-1-.596-.298-1.529.471-2 0-.102-.102.068-2.658 0-3-.27-1.348-.667-2.667-1-4z"
         fill="#66d163"
         transform="translate(-224 -111.86)"
         id="path23" />
    </pattern>
    <pattern
       patternUnits="userSpaceOnUse"
       width="462.222"
       height="265"
       patternTransform="translate(747.778 285)"
       id="e">
      <path
         fill="#1ed660"
         stroke-width="25.116"
         d="M747.778 285H1210v265H747.778z"
         transform="translate(-747.778 -285)"
         id="path26" />
      <path
         fill="url(#d)"
         d="M751 300.859h283.08v214.234H751z"
         transform="translate(-747.778 -285)"
         id="path28" />
      <path
         d="M1058 330c-2.471 2.483-6.172 1.586-9 3-.843.422-1.264 1.411-2 2-.939.75-1.925 1.463-3 2-3.892 1.946-2.514.078-7 2-8.765 3.757 2.428.592-6 3-1.321.378-2.77.385-4 1-.843.422-1.192 1.515-2 2-.904.542-2.021.609-3 1-.692.277-1.36.617-2 1-1.03.618-1.956 1.404-3 2-1.294.74-2.76 1.173-4 2-.784.523-1.192 1.515-2 2-.904.542-2.096.458-3 1-1.617.97-2.491 2.869-4 4-1.98 1.485-3.02.515-5 2-.596.447-.473 1.473-1 2-1.054 1.054-3.106.807-4 2-.632.843-.368 2.157-1 3-.062 2.816-2.255.255-3 1-.527.527-.473 1.473-1 2-.527.527-1.473.473-2 1-.236.236.15.702 0 1-.21.422-.739.608-1 1-.413.62-.473 1.473-1 2-.527.527-1.38.587-2 1-.392.261-.667.667-1 1-.333.333-.739.608-1 1-.413.62-.473 1.473-1 2-2.429 2.429-1.468-.297-3 2-.413.62-.587 1.38-1 2-.261.392-.79.578-1 1-.298.596.21 1.368 0 2-2.414 7.243.288-1.577-2 3-.131.263 0 3.477 0 4v52c0 .667.162 1.353 0 2-.18.723-.82 1.277-1 2-.323 1.294.261 2.693 0 4-.207 1.034-.793 1.966-1 3-.13.654.162 1.353 0 2-.18.723-.82 1.277-1 2-.162.647.162 1.353 0 2-.18.723-.82 1.277-1 2-.323 1.294.323 2.706 0 4-.18.723-.82 1.277-1 2-.162.647.162 1.353 0 2-.18.723-.764 1.293-1 2-.105.316.105.684 0 1-.236.707-.764 1.293-1 2-.21.632.298 1.404 0 2-.21.422-.79.578-1 1-.15.298.105.684 0 1-.236.707-.764 1.293-1 2-.354 1.063.354 2.937 0 4-.298.894-1.578 1.157-2 2-.298.596.298 1.404 0 2-2.08 4.162.069-1.069-2 1-.236.236 0 .667 0 1 0 .45-.152 2.696 0 3 .21.422.79.578 1 1 .15.298-.236.764 0 1s.764-.236 1 0-.236.764 0 1c.5.5 2.5-.5 3 0 .236.236-.236.764 0 1 .471.471 1.404-.298 2 0 .843.422 1.157 1.578 2 2 .629.314 3.371-.314 4 0 .422.21.578.79 1 1 .396.198 2.796-.204 3 0 .236.236-.236.764 0 1 .032.032 2.757 0 3 0h6c.45 0 2.696-.152 3 0 .422.21.578.79 1 1 .607.304 5.393-.304 6 0 .422.21.578.79 1 1 .298.15.764-.236 1 0s-.236.764 0 1 .702-.15 1 0c.422.21.578.79 1 1 .298.15.702-.15 1 0 .422.21.578.79 1 1 .298.15.764-.236 1 0 2.069 2.069-3.162-.08 1 2 .298.15.764-.236 1 0 .032.032 0 2.757 0 3v15c0 .471-.045 4.955 0 5 .045.045 4.529 0 5 0h6c.45 0 2.696.152 3 0 .843-.422 1.157-1.578 2-2 .63-.315 4.37.315 5 0 .843-.422 1.157-1.578 2-2 .298-.15.764.236 1 0s-.298-.85 0-1c.647-.323 3.64.36 4 0 .236-.236-.236-.764 0-1s.702.15 1 0c.422-.21.578-.79 1-1 .596-.298 1.404.298 2 0 .422-.21.667-.667 1-1 .333-.333.79-.578 1-1 .298-.596-.471-1.529 0-2 .236-.236.764.236 1 0s-.15-.702 0-1c.382-.764 2.774-2.323 3-3 .21-.632-.298-1.404 0-2 .15-.298.702.15 1 0 .422-.21.79-.578 1-1 .265-.53-.227-4.32 0-5 .298-.894 1.578-1.157 2-2 .298-.596-.298-1.404 0-2 .21-.422.79-.578 1-1 .132-.263 0-3.477 0-4v-10-31-5c0-1.333-.189-2.68 0-4 .15-1.044.827-1.96 1-3 .164-.986 0-2 0-3v-7c0-1-.196-2.02 0-3 1.298-6.49 1 2.229 1-4v-20-6c0-1-.316-2.051 0-3 .15-.447.79-.578 1-1 .15-.298-.236-.764 0-1s.85.298 1 0c.298-.596-.21-1.368 0-2 .15-.447.79-.578 1-1 .15-.298-.15-.702 0-1 2.288-4.577-.414 4.243 2-3 .616-1.847-1.526-.474 1-3 .527-.527 1.38-.587 2-1 .392-.261.667-.667 1-1 .333-.333.739-.608 1-1 2.667-4-1-.333 3-3 .784-.523 1.157-1.578 2-2 2.463-1.231-.903 2.903 3-1 .236-.236-.15-.702 0-1 .21-.422.667-.667 1-1 .333-.333.608-.739 1-1 .62-.413 1.38-.587 2-1 .784-.523 1.157-1.578 2-2 .298-.15.702.15 1 0 .266-.133 2.867-2.734 3-3 .132-.263 0-3.477 0-4 0-.696.18-4.638 0-5-.422-.843-1.578-1.157-2-2-.198-.396.204-2.796 0-3-.236-.236-.764.236-1 0-.471-.471.298-1.404 0-2-.21-.422-.79-.578-1-1-.298-.596.471-1.529 0-2-.236-.236-.764.236-1 0s.236-.764 0-1-.85.298-1 0c-.298-.596.21-1.368 0-2-.15-.447-.79-.578-1-1-.298-.596.298-1.404 0-2-.21-.422-.79-.578-1-1-.15-.298 0-.667 0-1 0-.969.199-5.404 0-6-.236-.707-.764-1.293-1-2-.21-.632.298-1.404 0-2-.21-.422-.79-.578-1-1-.13-.259 0-5.291 0-6v-1c0-.333.236-.764 0-1s-.667 0-1 0c-.242 0-2.968-.032-3 0-.236.236.236.764 0 1s-.702-.15-1 0c-.422.21-.538.908-1 1-1.307.261-2.667 0-4 0z"
         fill="#3fcc72"
         transform="translate(-747.778 -285)"
         id="path30" />
      <path
         d="M855 455c-2.034 1.845-4.786-.738-7 0-1.414.471-2.586 1.529-4 2-1.21.403-4.638-.34-6 0-.723.18-1.277.82-2 1-.647.162-1.368-.21-2 0-.447.15-.553.85-1 1-1.265.422-2.735-.422-4 0-.447.15-.578.79-1 1-.298.15-.702-.15-1 0-.422.21-.578.79-1 1-.298.15-.702-.15-1 0-.422.21-.553.85-1 1-.005.002-2.999 0-3 0-.236.236.236.764 0 1s-.684-.105-1 0c-.707.236-1.293.764-2 1-.316.105-.702-.15-1 0-.422.21-.553.85-1 1-.005.002-2.999 0-3 0-.236.236.236.764 0 1s-.684-.105-1 0a8.46 8.46 0 0 0-2 1c-1.154.77-1.846 2.23-3 3-2.3 1.533-2.7.467-5 2-1.154.77-1.846 2.23-3 3-.62.413-1.38.587-2 1-.784.523-1.216 1.477-2 2-.504 2.203-2.057.529-3 1-.422.21-.608.739-1 1-1.24.827-2.76 1.173-4 2-2.044 1.363.016 2.328-2 3-.632.21-1.368-.21-2 0-.894.298-1.157 1.578-2 2-2.463 1.231.903-2.903-3 1-.236.236.236.764 0 1s-.702-.15-1 0c-.422.21-.578.79-1 1-.596.298-1.404-.298-2 0-4.162 2.08 1.069-.069-1 2-.236.236-.702-.15-1 0-.422.21-.578.79-1 1-.396.198-2.796-.204-3 0-.236.236.236.764 0 1s-.764-.236-1 0 .15.702 0 1c-.21.422-.79.578-1 1-.15.298.236.764 0 1s-.702-.15-1 0c-.843.422-1.157 1.578-2 2-1.38.69-.894-1.211-2 1-.271.542.274 3.726 0 4-.236.236-.764-.236-1 0s.236.764 0 1-.764-.236-1 0 .15.702 0 1c-.21.422-.79.578-1 1-.298.596.471 1.529 0 2-.236.236-.764-.236-1 0s.236.764 0 1-.764-.236-1 0c-.04.04 0 3.633 0 4v15c0 .243-.032 2.968 0 3 .471.471 1.529-.471 2 0 .236.236-.236.764 0 1s.764-.236 1 0-.236.764 0 1 .764-.236 1 0-.236.764 0 1 .702-.15 1 0c.843.422 1.157 1.578 2 2 .263.131 3.477 0 4 0h17c.45 0 2.696-.152 3 0 .843.422 1.157 1.578 2 2 .8.4 2.2-.4 3 0 .422.21.578.79 1 1 .596.298 1.368-.21 2 0 .707.236 1.293.764 2 1 .632.21 1.404-.298 2 0 .422.21.667.667 1 1 .667 0 1.368-.21 2 0 .447.15.553.85 1 1 .632.21 1.333 0 2 0 .333 0 .702-.15 1 0 .422.21.578.79 1 1 .298.15.684-.105 1 0 .707.236 1.293.764 2 1 .6.2 4.202 0 5 0h25c.709 0 5.741.13 6 0 .422-.21.578-.79 1-1 .63-.315 4.37.315 5 0 .422-.21.578-.79 1-1 .596-.298 1.529.471 2 0 .236-.236-.236-.764 0-1 .274-.274 3.458.271 4 0 .422-.21.578-.79 1-1 .596-.298 1.404.298 2 0 .422-.21.578-.79 1-1 .596-.298 1.404.298 2 0 .422-.21.578-.79 1-1 .298-.15.764.236 1 0s-.236-.764 0-1c.471-.471 1.404.298 2 0 .422-.21.578-.79 1-1 .8-.4 2.2.4 3 0 .422-.21.578-.79 1-1 .298-.15.667 0 1 0h6c.333 0 .702.15 1 0 .422-.21.578-.79 1-1 .263-.131 3.477 0 4 0h19c1.04 0 5.213-.197 6 0 .723.18 1.277.82 2 1 1.294.323 2.693-.261 4 0 1.034.207 1.966.793 3 1 1.603.32 3.397-.32 5 0 .73.146 1.277.82 2 1 .647.162 1.353-.162 2 0 .723.18 1.277.82 2 1 .647.162 1.333 0 2 0h31c.333 0 .764.236 1 0s-.236-.764 0-1c.5-.5 2.5.5 3 0 .032-.032 0-2.757 0-3 0-1.917.452-1.548-1-3-.333-.333-.578-.79-1-1-.298-.15-.764.236-1 0s.236-.764 0-1-.764.236-1 0 .236-.764 0-1c-.31-.31-4.69.31-5 0-.236-.236.15-.702 0-1-1.106-2.211-.62-.31-2-1-.422-.21-.578-.79-1-1-.298-.15-.702.15-1 0-.422-.21-.608-.739-1-1-.62-.413-1.38-.587-2-1-.784-.523-1.216-1.477-2-2-.62-.413-1.38-.587-2-1-.784-.523-1.333-1.333-2-2-.03-.03-3.798-3.596-4-4-1.26-2.519 3.798.865-2-3-.277-.185-.702.15-1 0-.422-.21-.667-.667-1-1l-1-1c-.64-.64-3.376-3.064-4-4-.413-.62-.587-1.38-1-2-1.658-2.487-.23-.115-2-1-.422-.21-.667-.667-1-1l-2-2c-.781-.781-2.425-2.137-3-3-.413-.62-.473-1.473-1-2-.471-.471-1.529.471-2 0-.527-.527-.473-1.473-1-2-.236-.236-.702.15-1 0-.843-.422-1.216-1.477-2-2-.62-.413-1.473-.473-2-1-.236-.236.15-.702 0-1-.21-.422-.667-.667-1-1-.333-.333-.578-.79-1-1-.298-.15-.764.236-1 0-2.429-2.429.297-1.468-2-3-.62-.413-1.473-.473-2-1-.236-.236.15-.702 0-1-.133-.266-2.734-2.867-3-3-.298-.15-.702.15-1 0-.422-.21-.667-.667-1-1-.333-.333-.79-.578-1-1-.15-.298.15-.702 0-1-.21-.422-.667-.667-1-1-.333-.333-.578-.79-1-1-.596-.298-1.529.471-2 0-.236-.236.15-.702 0-1-.422-.843-1.578-1.157-2-2-.15-.298.15-.702 0-1-1.106-2.211-.62-.31-2-1-.191-.096-3.904-3.809-4-4-.15-.298.236-.764 0-1s-.764.236-1 0c-.471-.471.471-1.529 0-2-.236-.236-.764.236-1 0s.15-.702 0-1c-.422-.843-1.578-1.157-2-2-.15-.298.236-.764 0-1s-.764.236-1 0 .236-.764 0-1-.764.236-1 0 .236-.764 0-1c-.045-.045-4.529 0-5 0h-17c-.333 0-1 .333-1 0s1.333 0 1 0c-1.075 0-2.874.225-4 0-1.348-.27-2.667-.667-4-1z"
         fill="#7dcb9a"
         transform="translate(-747.778 -285)"
         id="path32" />
      <path
         d="M795 331c-1.667 1-3.383 1.922-5 3-.392.261-.667.667-1 1l-5 5-2 2c-.667.667-1.434 1.246-2 2-.447.596-.473 1.473-1 2-.527.527-1.473.473-2 1-1.054 1.054-.946 2.946-2 4-.527.527-1.473.473-2 1-.064.064-1.876 3.814-2 4-.784 1.177-2.151 1.869-3 3-2.203.504-.529 2.057-1 3-.21.422-.739.608-1 1-.413.62-.587 1.38-1 2-.523.784-1.578 1.157-2 2-.15.298.15.702 0 1-.6 1.2-2.4 1.8-3 3-.15.298.236.764 0 1s-.764-.236-1 0 .236.764 0 1-.764-.236-1 0c-.471.471.471 1.529 0 2-.236.236-.764-.236-1 0s.236.764 0 1-.764-.236-1 0 .15.702 0 1c-.21.422-.79.578-1 1-.889 1.778.556.556 1 1 .236.236-.236.764 0 1s.764-.236 1 0c.471.471-.471 1.529 0 2 .236.236.764-.236 1 0s-.236.764 0 1 .764-.236 1 0-.236.764 0 1 .764-.236 1 0-.15.702 0 1c.21.422.79.578 1 1 .15.298-.15.702 0 1 .21.422.79.578 1 1 .15.298-.15.702 0 1 .21.422.79.578 1 1 .298.596-.298 1.404 0 2 .21.422.79.578 1 1 .15.298-.15.702 0 1 .21.422.79.578 1 1 .15.298-.15.702 0 1 .422.843 1.578 1.157 2 2 .15.298-.236.764 0 1s.764-.236 1 0c.471.471-.471 1.529 0 2 2.069 2.069-.08-3.162 2 1 .314.629-.314 3.371 0 4 .422.843 1.578 1.157 2 2 .15.298-.15.702 0 1 .21.422.79.578 1 1 .198.396-.204 2.796 0 3 .236.236.764-.236 1 0s-.236.764 0 1 .764-.236 1 0c.471.471-.471 1.529 0 2 .236.236.764-.236 1 0 .471.471-.471 1.529 0 2 .236.236.764-.236 1 0s-.236.764 0 1c.471.471 1.404-.298 2 0 1.388.694 1 1.78 1 3 0 .333-.236.764 0 1s.764.236 1 0-.236-.764 0-1 .764.236 1 0c.471-.471-.471-1.529 0-2 .236-.236.764.236 1 0 .5-.5-.5-2.5 0-3 .236-.236.764.236 1 0s-.15-.702 0-1c.21-.422.79-.578 1-1 .15-.298-.236-.764 0-1s.764.236 1 0c.274-.274-.271-3.458 0-4 .21-.422.79-.578 1-1 .15-.298-.236-.764 0-1s.764.236 1 0-.15-.702 0-1c.422-.843 1.477-1.216 2-2 2.203-.504.529-2.057 1-3 .21-.422.739-.608 1-1 .413-.62.587-1.38 1-2 .523-.784 1.578-1.157 2-2 .15-.298-.15-.702 0-1 .6-1.2 2.4-1.8 3-3 .15-.298-.15-.702 0-1 .21-.422.79-.578 1-1 .198-.396-.204-2.796 0-3 .236-.236.764.236 1 0s-.236-.764 0-1 .764.236 1 0-.236-.764 0-1 .764.236 1 0-.236-.764 0-1 .764.236 1 0-.236-.764 0-1 .764.236 1 0c.471-.471-.471-1.529 0-2 .471-.471 1.529.471 2 0 .236-.236-.15-.702 0-1 .21-.422.79-.578 1-1 .298-.596-.298-1.404 0-2 .21-.422.79-.578 1-1 .15-.298 0-.667 0-1v-1-1 2c0-1 .316-2.051 0-3-.105-.316-.764.236-1 0s.15-.702 0-1c-2.08-4.162.069 1.069-2-1-.236-.236.15-.702 0-1-.422-.843-1.578-1.157-2-2-.15-.298.15-.702 0-1-.422-.843-1.578-1.157-2-2-.15-.298.15-.702 0-1-.21-.422-.79-.578-1-1-.4-.8.4-2.2 0-3-.422-.843-1.578-1.157-2-2-.15-.298.236-.764 0-1s-.764.236-1 0 .15-.702 0-1c-.21-.422-.79-.578-1-1-.298-.596.471-1.529 0-2-.236-.236-.764.236-1 0s.15-.702 0-1c-.21-.422-.79-.578-1-1-.15-.298.105-.684 0-1-.236-.707-.764-1.293-1-2-.199-.596 0-5.031 0-6 0-.333.236-.764 0-1s-.764.236-1 0 0-.667 0-1c0-.523-.131-3.737 0-4 .21-.422.757-.596 1-1 .767-1.278 1.333-2.667 2-4z"
         fill="#7ece9c"
         transform="translate(-747.778 -285)"
         id="path34" />
      <path
         d="M1030 443c3.089 5.696 4.358 12.13 7 18 1.408 3.13 3.624 5.856 5 9 .973 2.223 1.044 4.77 2 7 2.337 5.452 4.518 7.036 7 12 .471.943.529 2.057 1 3 .537 1.075 1.527 1.895 2 3 .541 1.263.238 2.856 1 4 .667 1 2.25 1.062 3 2 .658.823.609 2.021 1 3 .277.692.667 1.333 1 2l3 6c.333.667.764 1.293 1 2 .105.316-.15.702 0 1 .21.422.85.553 1 1 .152.457-.223 3.555 0 4 .21.422.79.578 1 1 .15.298-.15.702 0 1 .21.422.79.578 1 1 .15.298-.15.702 0 1 .422.843 1.578 1.157 2 2 .15.298-.15.702 0 1 .422.843 1.578 1.157 2 2 .298.596-.471 1.529 0 2 .236.236.667 0 1 0 .523 0 3.737.131 4 0 .422-.21.79-.578 1-1 .15-.298-.298-.85 0-1 .596-.298 1.367.21 2 0 .447-.15.578-.79 1-1 .298-.15.684.105 1 0 .707-.236 1.293-.764 2-1 .316-.105.702.15 1 0 4.577-2.288-4.243.414 3-2 .632-.21 1.404.298 2 0 .422-.21.578-.79 1-1 .596-.298 1.529.471 2 0 .236-.236-.15-.702 0-1 .21-.422.667-.667 1-1 .333-.333.578-.79 1-1 .298-.15.702.15 1 0 .422-.21.578-.79 1-1 .298-.15.764.236 1 0s-.236-.764 0-1c.471-.471 1.529.471 2 0 .236-.236-.15-.702 0-1 .422-.843 1.578-1.157 2-2 .15-.298-.15-.702 0-1 .21-.422.79-.578 1-1 .15-.298-.236-.764 0-1s.764.236 1 0c.5-.5-.5-2.5 0-3 .236-.236.764.236 1 0s-.15-.702 0-1c.21-.422.79-.578 1-1 .068-.137.068-5.863 0-6-.21-.422-.79-.578-1-1-.298-.596.298-1.404 0-2-.241-.482-3.973-3.98-4-4-.596-.447-1.36-.617-2-1-2.061-1.237-3.939-2.763-6-4-1.278-.767-2.76-1.173-4-2-.392-.261-.608-.739-1-1-1.24-.827-2.76-1.173-4-2-.392-.261-.608-.739-1-1-.62-.413-1.333-.667-2-1-.667-.333-1.308-.723-2-1-.979-.391-2.057-.529-3-1-5.057-3.371-.825-.93-6-3-4.532-1.813-.139-.092-3-2-.62-.413-1.473-.473-2-1-.236-.236.298-.85 0-1-.596-.298-1.367.21-2 0-.447-.15-.578-.79-1-1-.298-.15-.702.15-1 0-.422-.21-.608-.739-1-1-.62-.413-1.38-.587-2-1-.392-.261-.608-.739-1-1-.62-.413-1.38-.587-2-1-.91-.607-2.114-2.557-3-3-.298-.15-.702.15-1 0-4.162-2.08 1.069.069-1-2-.236-.236-.702.15-1 0-.422-.21-.578-.79-1-1-.298-.15-.702.15-1 0-.422-.21-.667-.667-1-1-.333-.333-.79-.578-1-1-.15-.298.236-.764 0-1s-.764.236-1 0c-.24-.24.24-3.76 0-4-.236-.236-.764.236-1 0s.15-.702 0-1c-.21-.422-.79-.578-1-1-.152-.304 0-2.55 0-3 0-.709.13-5.741 0-6-.21-.422-.79-.578-1-1-.298-.596.298-1.404 0-2-.21-.422-.79-.578-1-1-.15-.298.236-.764 0-1s-.667 0-1 0h-1c-4.029 0-2.447-.415-7 3z"
         fill="#60de8f"
         transform="translate(-747.778 -285)"
         id="path36" />
      <path
         d="M1011 484c-44.263 14.754 28.733-8.926-29 7-4.177 1.152-7.854 3.738-12 5-3.565 1.085-7.346 1.27-11 2-1.348.27-2.634.848-4 1-1.656.184-3.35-.236-5 0-.738.105-1.333.667-2 1l-4 2c-.667.333-1.293.764-2 1-.316.105-.684-.105-1 0-1.414.471-2.554 1.638-4 2-.647.162-1.353-.162-2 0-.723.18-1.277.82-2 1-.647.162-1.404-.298-2 0-.298.15.236.764 0 1s-.667 0-1 0c-.696 0-4.638-.18-5 0-.422.21-.578.79-1 1-.596.298-1.529-.471-2 0-.236.236.236.764 0 1-.5.5-2.5-.5-3 0-.236.236.236.764 0 1s-.764-.236-1 0 0 .667 0 1v5c0 .523-.131 3.737 0 4 .21.422.79.578 1 1 .15.298-.15.702 0 1 .21.422.79.578 1 1 .18.362 0 4.304 0 5 0 .333-.236.764 0 1 .471.471 1.404-.298 2 0 .422.21.578.79 1 1 .298.15.764-.236 1 0s-.236.764 0 1 .702-.15 1 0c.422.21.578.79 1 1 .298.15.764-.236 1 0s-.15.702 0 1c.6 1.2 2.4 1.8 3 3 .15.298-.236.764 0 1s.702-.15 1 0c4.162 2.08-1.069-.069 1 2 .236.236.764-.236 1 0s-.15.702 0 1c.21.422.79.578 1 1 .15.298-.236.764 0 1 .471.471 1.529-.471 2 0 .471.471-.471 1.529 0 2 .236.236.702-.15 1 0 .422.21.667.667 1 1 .333.333.578.79 1 1 .362.18 4.304 0 5 0h10c.333 0 .764.236 1 0s-.298-.85 0-1c.8-.4 2.2.4 3 0 .422-.21.578-.79 1-1 .298-.15.684.105 1 0 .707-.236 1.293-.764 2-1 .316-.105.764.236 1 0s-.298-.85 0-1c.846-.423 3.931.356 5 0 7.243-2.414-1.577.288 3-2 .596-.298 1.404.298 2 0 .422-.21.578-.79 1-1 .298-.15.702.15 1 0 .422-.21.578-.79 1-1 .396-.198 2.796.204 3 0 .236-.236-.236-.764 0-1 .204-.204 2.604.198 3 0 .422-.21.578-.79 1-1 .298-.15.764.236 1 0s-.236-.764 0-1 .764.236 1 0-.236-.764 0-1 .764.236 1 0-.236-.764 0-1c2.069-2.069-.08 3.162 2-1 .15-.298-.236-.764 0-1s.702.15 1 0c.422-.21.578-.79 1-1 .298-.15.764.236 1 0 .471-.471-.471-1.529 0-2 .236-.236.764.236 1 0s0-.667 0-1v-1-12c0-.367-.04-3.96 0-4 .236-.236.764.236 1 0 .204-.204-.198-2.604 0-3 .21-.422.79-.578 1-1 .15-.298 0-.667 0-1v-1-6-8c0-.333-.236-.764 0-1s.667 0 1 0h6c1 0 2.051.316 3 0 .447-.15.578-.79 1-1 .263-.131 3.477 0 4 0h1c.333 0 .92.323 1 0 .323-1.294-1.315-3.78 0-4 2.206-.368 3.85 2.386 6 3 1.174.335 1.205-2.795 1-3-.236-.236-.667 0-1 0-.333 0-.764-.236-1 0s.236.764 0 1-.673.065-1 0c-1.348-.27-2.667-.667-4-1zM999 336l7 3c1.667 1.333 3.091 3.045 5 4 2.17 1.085 4.777 1.027 7 2 3.144 1.376 5.89 3.549 9 5 1.91.892 4.144 1 6 2 2.525 1.36 4.435 3.718 7 5 22.67 11.335-6.873-7.211 12 6 6.954 4.868 2.813 1.406 10 5 1.738.87 3.261 2.13 5 3 3.465 1.732 5.819 1.88 9 4 1.776 1.184 3.315 2.69 5 4 1.316 1.023 2.667 2 4 3 1.333 1 2.553 2.173 4 3 .915.523 2.096.458 3 1 .808.485 1.216 1.477 2 2 14.803 9.869-6.103-5.92 7 5 4.092 3.41 2.11.74 7 4 .784.523 1.246 1.434 2 2 .596.447 1.404.553 2 1 3.958 2.969.064 1.064 4 5 .527.527 1.404.553 2 1 .754.566 1.192 1.515 2 2 .904.542 2.123.415 3 1 .277.185-.15.702 0 1 .573 1.146 2.087 1.391 3 2 2.487 1.658.115.23 1 2 .21.422.667.667 1 1 .333.333.578.79 1 1 .298.15.764-.236 1 0s-.15.702 0 1c2.08 4.162-.069-1.069 2 1 .236.236-.236.764 0 1s.764-.236 1 0-.236.764 0 1 .667 0 1 0c.333 0 .764.236 1 0s.236-.764 0-1-.702.15-1 0a2.292 2.292 0 0 1-1-1c-.15-.298.15-.702 0-1-.21-.422-.79-.578-1-1-.298-.596.471-1.529 0-2-.236-.236-.764.236-1 0-.032-.032 0-2.757 0-3v-17-21-7c0-.667.21-1.368 0-2-.15-.447-.85-.553-1-1 0-4.552.471-.057-1-3-.15-.298.236-.764 0-1s-.85.298-1 0c-.146-.293 0-5.181 0-6v-1c0-.333.236-.764 0-1-.032-.032-2.757 0-3 0h-6c-.667 0-1.353.162-2 0-.723-.18-1.27-.854-2-1-.98-.196-2 0-3 0-1.333 0-2.677.165-4 0-1.364-.17-2.634-.848-4-1-1.657-.184-3.373.362-5 0-1.455-.323-2.545-1.677-4-2-1.627-.362-3.344.184-5 0-1.366-.152-2.667-.667-4-1-1.667 0-3.34.15-5 0-3.435 1.25-5.95-1.619-9-2-1.654-.207-3.344.184-5 0-1.366-.152-2.667-.667-4-1-1.333-.333-2.679-.622-4-1-1.014-.29-1.966-.793-3-1-1.603-.32-3.397.32-5 0-.73-.146-1.277-.82-2-1-.647-.162-1.367.21-2 0-.447-.15-.553-.85-1-1-4.552 0-.057.471-3-1-.596-.298-1.404.298-2 0-.422-.21-.578-.79-1-1-.298-.15-.684.105-1 0-.707-.236-1.293-.764-2-1-.632-.21-1.367.21-2 0-7.243-2.414 1.577.288-3-2-.298-.15-.684.105-1 0-.707-.236-1.293-.764-2-1-.632-.21-1.404.298-2 0-.422-.21-.578-.79-1-1-.63-.315-4.37.315-5 0-.422-.21-.578-.79-1-1-.596-.298-1.404.298-2 0-.843-.422-1.157-1.578-2-2-.596-.298-1.404.298-2 0-.422-.21-.578-.79-1-1-.304-.152-2.55 0-3 0h-6c-.333 0-1 .333-1 0s1-.333 1 0c0 .471-.79.578-1 1-.15.298.236.764 0 1-.471.471-1.404-.298-2 0-.422.21-.79.578-1 1-.15.298.065.673 0 1-.27 1.348-.667 2.667-1 4z"
         fill="#55dc88"
         transform="translate(-747.778 -285)"
         id="path38" />
      <path
         d="M1205 302h-82c-.667 0-1.367-.21-2 0-.447.15-.578.79-1 1-.298.15-.684-.105-1 0-.707.236-1.293.764-2 1-.316.105-.702-.15-1 0-.422.21-.578.79-1 1-.298.15-.702-.15-1 0-.422.21-.578.79-1 1-.397.198-2.796-.204-3 0-.236.236.236.764 0 1s-.702-.15-1 0c-4.162 2.08 1.069-.069-1 2-.236.236-.764-.236-1 0s.15.702 0 1c-.21.422-.79.578-1 1-.15.298.236.764 0 1s-.764-.236-1 0c-.471.471.298 1.404 0 2-.21.422-.79.578-1 1-.15.298.105.684 0 1-.236.707-.764 1.293-1 2-.105.316.236.764 0 1s-.85-.298-1 0c-.31.621.249 5.004 0 6-.18.723-.82 1.277-1 2-.162.647.162 1.353 0 2-.18.723-.82 1.277-1 2-.162.647.162 1.353 0 2-.18.723-.82 1.277-1 2-.242.97.316 2.051 0 3-.236.707-.764 1.293-1 2-.105.316.236.764 0 1s-.85-.298-1 0c-.423.846.356 3.931 0 5-2.414 7.243.288-1.577-2 3-.298.596.298 1.404 0 2-.21.422-.667.667-1 1 0 .667.21 1.368 0 2-.298.894-1.578 1.157-2 2-.112.224 0 3.762 0 4v11c0 1-.316 2.051 0 3 .15.447.79.578 1 1 .15.298-.236.764 0 1s.764-.236 1 0c.471.471-.471 1.529 0 2 .236.236.764-.236 1 0s-.15.702 0 1c.21.422.79.578 1 1 .298.596-.298 1.404 0 2 .21.422.667.667 1 1 .333.333.578.79 1 1 .263.131 3.477 0 4 0 .45 0 2.696.152 3 0 .422-.21.578-.79 1-1 .596-.298 1.529.471 2 0 .236-.236-.236-.764 0-1 .471-.471 1.404.298 2 0 .422-.21.578-.79 1-1 .298-.15.702.15 1 0 .843-.422 1.157-1.578 2-2 .298-.15.702.15 1 0 .422-.21.578-.79 1-1 .298-.15.764.236 1 0s-.236-.764 0-1c.204-.204 2.603.198 3 0 .422-.21.578-.79 1-1 .298-.15.702.15 1 0 .422-.21.578-.79 1-1 .596-.298 1.404.298 2 0 .422-.21.578-.79 1-1 .362-.18 4.304 0 5 0h6c.667 0 1.404-.298 2 0 .298.15-.236.764 0 1 .471.471 1.367-.21 2 0 1.816.605 1.856.856 3 2 .333.333.578.79 1 1 .298.15.702-.15 1 0 .886.443 2.09 2.393 3 3 .62.413 1.293.764 2 1 1.241.414 1.09-.82 2 1 .15.298-.15.702 0 1 .096.191 3.809 3.904 4 4 1.38.69.894-1.211 2 1 .298.596-.298 1.404 0 2 .92 1.841 2.08.159 3 2 .15.298-.15.702 0 1 .21.422.79.578 1 1 .298.596-.21 1.368 0 2 .236.707.764 1.293 1 2 .105.316-.15.702 0 1 .21.422.79.578 1 1 .15.298-.15.702 0 1 .21.422.79.578 1 1 .317.634-.325 4.35 0 5 .21.422.85.553 1 1 .19.569 0 4.058 0 5v2c0 .333.333 1 0 1s0-.667 0-1v-1c0-2.345-.236.471 1-2 .15-.298-.236-.764 0-1s.85.298 1 0c.298-.596-.298-1.404 0-2 .15-.298.764.236 1 0 .471-.471-.21-1.368 0-2 .605-1.816.856-1.856 2-3 2.054-2.054.176.295 1-3 .162-.649 2.575-5.363 3-6 .262-.392.739-.608 1-1 .827-1.24 1.173-2.76 2-4 .262-.392.79-.578 1-1 .15-.298 0-.667 0-1 .333-.667.587-1.38 1-2 1.282-1.923 1.718-.077 3-2 1.15-1.724 1-1.512 1-3 0-.333-.15-.702 0-1 .21-.422.739-.608 1-1 .413-.62.473-1.473 1-2 .236-.236.702.15 1 0 .422-.21.667-.667 1-1 .333-.333.79-.578 1-1 .15-.298-.15-.702 0-1 .21-.422.79-.578 1-1 .298-.596-.471-1.529 0-2 .236-.236.764.236 1 0 .471-.471-.471-1.529 0-2 .236-.236.764.236 1 0s-.236-.764 0-1 .764.236 1 0-.236-.764 0-1 .764.236 1 0c2.069-2.069-3.162.08 1-2 .298-.15.764.236 1 0s-.15-.702 0-1c.422-.843 1.578-1.157 2-2 .298-.596-.298-1.404 0-2 2.08-4.162-.069 1.069 2-1 .471-.471-.298-1.404 0-2 2.08-4.162-.069 1.069 2-1 .236-.236 0-.667 0-1v-1c0-.709-.13-5.741 0-6 .21-.422.79-.578 1-1 .18-.362 0-4.304 0-5v-14-4-1c0-.333-.15-.702 0-1 .21-.422.79-.578 1-1 .15-.298-.15-.702 0-1 .21-.422.79-.578 1-1 .314-.629-.314-3.371 0-4 .21-.422.79-.578 1-1 .298-.596-.298-1.404 0-2 .21-.422.79-.578 1-1 .298-.596-.298-1.404 0-2 .21-.422.79-.578 1-1 .152-.304 0-2.55 0-3"
         fill="#49e584"
         transform="translate(-747.778 -285)"
         id="path40" />
      <path
         d="M1190 453v-10-2c0-.667.162-1.353 0-2-.725-2.9-.78-1.17-2-3-.827-1.24-1.173-2.76-2-4-.262-.392-.739-.608-1-1-.827-1.24-1.106-2.807-2-4-.566-.754-1.333-1.333-2-2-1-1-1.869-2.151-3-3-.962-.721-2.062-1.25-3-2-.736-.589-1.246-1.434-2-2-.596-.447-1.333-.667-2-1-1.333-.667-2.787-1.134-4-2-1.15-.822-1.914-2.095-3-3-2.658-2.215-3.888-2.222-7-4-1.044-.596-1.895-1.527-3-2-1.263-.541-2.857-.238-4-1-1-.667-1.077-2.23-2-3-1.145-.954-2.667-1.333-4-2-.667-.333-1.308-.723-2-1-.979-.391-2.021-.609-3-1-.692-.277-1.277-.82-2-1-.647-.162-1.346.13-2 0-1.034-.207-1.986-.71-3-1-2.643-.755-5.426-1.035-8-2-1.396-.523-2.604-1.477-4-2-1.287-.483-2.679-.622-4-1-1.014-.29-1.96-.827-3-1-1.973-.329-4.039.392-6 0-.73-.146-1.277-.82-2-1-.647-.162-1.353.162-2 0-.723-.18-1.277-.82-2-1-.647-.162-1.333 0-2 0h-10c-.871 0-5.63-.185-6 0-.422.21-.578.79-1 1-.298.15-.667 0-1 0-.667 0-1.367-.21-2 0-2.01.67.01 2.33-2 3-.632.21-1.367-.21-2 0-.447.15-.578.79-1 1-.298.15-.702-.15-1 0-.534.267-2.474 2.474-3 3l-1 1c-.333.333-.79.578-1 1-.15.298.236.764 0 1-.68.68-1.989-1.022-3 1-.15.298 0 .667 0 1-.333.667-.587 1.38-1 2-.262.392-.79.578-1 1-.298.596.298 1.404 0 2-.21.422-.79.578-1 1-.15.298.15.702 0 1-.21.422-.79.578-1 1-.15.298.105.684 0 1-.236.707-.764 1.293-1 2-.105.316 0 .667 0 1v45c0 .894-.16 4.681 0 5 .21.422.79.578 1 1 .15.298-.15.702 0 1 .21.422.79.578 1 1 .298.596-.21 1.368 0 2 .236.707.764 1.293 1 2 .354 1.063-.354 2.937 0 4 .15.447.79.578 1 1 .15.298-.15.702 0 1 .21.422.85.553 1 1 .21.632-.298 1.404 0 2 .15.298.764-.236 1 0s-.15.702 0 1c.21.422.85.553 1 1 .152.457-.223 3.555 0 4 .422.843 1.578 1.157 2 2 .325.65-.317 4.366 0 5 .21.422.79.578 1 1 .315.63-.315 4.37 0 5 .267.534 2.474 2.474 3 3 .526.526 2.466 2.733 3 3 .298.15.702-.15 1 0 .422.21.578.79 1 1 .304.152 2.55 0 3 0h32c.667 0 1.404-.298 2 0 .843.422 1.216 1.477 2 2 .277.185.667 0 1 0 .849 0 5.449-.184 6 0 .447.15.578.79 1 1 .298.15.684-.105 1 0 .707.236 1.293.764 2 1 .316.105.764-.236 1 0 1.333 1.333-1.667 1 1 1 .667 0 1.367-.21 2 0 .89.297 2.11 2.703 3 3 .632.21 1.404-.298 2 0 .298.15-.236.764 0 1s.684-.105 1 0c.707.236 1.38.587 2 1 .784.523 1.157 1.578 2 2 1.38.69.894-1.211 2 1 .69 1.38-1.211.894 1 2 .298.15.702-.15 1 0 .422.21.578.79 1 1 .298.15.702-.15 1 0 2.211 1.106.31.62 1 2 .133.266 2.735 2.867 3 3 .596.298 1.404-.298 2 0 4.162 2.08-1.069-.069 1 2 .236.236.764-.236 1 0s-.236.764 0 1 .764-.236 1 0c2.069 2.069-3.162-.08 1 2 .137.068 5.863.068 6 0 .422-.21.578-.79 1-1 .298-.15.764.236 1 0s-.236-.764 0-1 .702.15 1 0c.422-.21.578-.79 1-1 .298-.15.702.15 1 0 .422-.21.578-.79 1-1 .397-.198 2.796.204 3 0 2.069-2.069-3.162.08 1-2 .298-.15.702.15 1 0 .422-.21.608-.739 1-1 .62-.413 1.38-.587 2-1 .392-.261.578-.79 1-1 .298-.15.764.236 1 0 2.069-2.069-3.162.08 1-2 .298-.15.702.15 1 0 .843-.422 1.157-1.578 2-2 .298-.15.764.236 1 0 .68-.68-1.022-1.989 1-3 .298-.15.702.15 1 0 .422-.21.578-.79 1-1 .298-.15.764.236 1 0s-.15-.702 0-1c.422-.843 1.477-1.216 2-2 2.203-.504.529-2.057 1-3 2.288-4.577-.414 4.243 2-3 .21-.632-.21-1.368 0-2 .236-.707.764-1.293 1-2 .105-.316-.236-.764 0-1 2.667-2.667-.333 3 1-1 .236-.707.764-1.293 1-2 .188-.564 0-2.343 0-3v-5c0-.45.152-2.696 0-3-.422-.843-1.578-1.157-2-2-.198-.396.204-2.796 0-3-.236-.236-.764.236-1 0s.15-.702 0-1c-.21-.422-.79-.578-1-1-.298-.596.21-1.368 0-2-.236-.707-.764-1.293-1-2-.105-.316.236-.764 0-1s-.764.236-1 0c-.471-.471.298-1.404 0-2-.21-.422-.79-.578-1-1-.15-.298.15-.702 0-1-.21-.422-.79-.578-1-1-.132-.263 0-3.477 0-4v-6c0-.667-.13-1.346 0-2 .27-1.348.667-2.667 1-4z"
         fill="#00c54a"
         transform="translate(-747.778 -285)"
         id="path42" />
    </pattern>
  </defs>
  <sodipodi:namedview
     pagecolor="#ffffff"
     bordercolor="#666666"
     borderopacity="1"
     objecttolerance="10"
     gridtolerance="10"
     guidetolerance="10"
     inkscape:pageopacity="0"
     inkscape:pageshadow="2"
     inkscape:window-width="1920"
     inkscape:window-height="1017"
     id="namedview6"
     showgrid="false"
     inkscape:zoom="1.668772"
     inkscape:cx="49.811001"
     inkscape:cy="244.81353"
     inkscape:window-x="-8"
     inkscape:window-y="-8"
     inkscape:window-maximized="1"
     inkscape:current-layer="svg4" />
  <g
     id="g6"
     style="stroke:url(#e)">
    <circle
       cx="0"
       cy="0"
       r="90"
       id="circle5"
       style="stroke:url(#e);stroke-width:12;stroke-miterlimit:4;stroke-dasharray:none" />
  </g>
  <g
     id="g1590">
    <circle
       cx="0"
       cy="0"
       r="60"
       id="circle2"
       style="stroke:url(#e);stroke-width:2.5;stroke-miterlimit:4;stroke-dasharray:none" />
    <circle
       cx="0"
       cy="0"
       r="45"
       id="ring"
       style="stroke:#ffffff;stroke-width:0.2;stroke-miterlimit:4;stroke-dasharray:none;stroke-opacity:1" />
    <circle
       cx="0"
       cy="0"
       r="25"
       id="circle1"
       style="fill:url(#e);fill-opacity:1.0" />
  </g>
  <g
     id="g1594">
    <rect
       y="-82.722717"
       x="42.813442"
       height="78.260826"
       width="3.355444"
       id="rect1579"
       style="stroke:url(#pattern1581);stroke-width:1.8;stroke-linejoin:round;stroke-miterlimit:4;stroke-dasharray:none;stroke-opacity:1" />
    <rect
       y="-13.592721"
       x="40.633495"
       height="17.602818"
       width="8.0149279"
       id="rect1583"
       style="stroke:url(#pattern1585);stroke-width:2.07599998;stroke-linejoin:round;stroke-miterlimit:4;stroke-dasharray:none;stroke-opacity:1" />
  </g>
</svg>
