<svg xmlns="http://www.w3.org/2000/svg" viewBox="0 0 44 44">
    <path d="M33 22c-6.075 0-11 4.925-11 11s4.925 11 11 11 11-4.925 11-11-4.925-11-11-11zm0 20c-4.971 0-9-4.029-9-9s4.029-9 9-9 9 4.029 9 9-4.029 9-9 9z"/>
    <path d="M37 32h-3v-3a1 1 0 1 0-2 0v3h-3a1 1 0 1 0 0 2h3v3a1 1 0 1 0 2 0v-3h3a1 1 0 1 0 0-2z"/>
    <path fill-rule="evenodd" d="M1 2h28a1 1 0 1 0 0-2H1a1 1 0 1 0 0 2zm23 18H1a1 1 0 1 0 0 2h23a1 1 0 1 0 0-2zm5-10H1a1 1 0 1 0 0 2h28a1 1 0 1 0 0-2zM17 30H1a1 1 0 1 0 0 2h16a1 1 0 1 0 0-2z"/>
</svg>
